<svg width="70" height="43" viewBox="0 0 70 43" fill="none" xmlns="http://www.w3.org/2000/svg">
<path d="M18.1353 9.12412C16.9292 13.6052 13.3481 16.5433 13.3481 16.5433C13.3481 16.5433 11.7223 12.2162 12.9284 7.73514C14.1345 3.25406 17.7156 0.315918 17.7156 0.315918C17.7156 0.315918 19.3414 4.64304 18.1353 9.12412Z" fill="#8D8D91"/>
<path d="M11.0206 12.6855C12.2267 17.1666 10.6009 21.4937 10.6009 21.4937C10.6009 21.4937 7.01976 18.5556 5.81369 14.0745C4.60763 9.59344 6.23338 5.26632 6.23338 5.26632C6.23338 5.26632 9.81455 8.20446 11.0206 12.6855Z" fill="#8D8D91"/>
<path d="M7.87206 21.1664C11.1671 24.4467 11.9324 29.0034 11.9324 29.0034C11.9324 29.0034 7.35536 28.2415 4.06033 24.9611C0.765289 21.6808 0 17.1241 0 17.1241C0 17.1241 4.57702 17.886 7.87206 21.1664Z" fill="#8D8D91"/>
<path d="M9.66909 30.0764C14.1702 31.2771 17.1215 34.8424 17.1215 34.8424C17.1215 34.8424 12.775 36.4609 8.27389 35.2602C3.77279 34.0595 0.821516 30.4942 0.821516 30.4942C0.821516 30.4942 5.16798 28.8757 9.66909 30.0764Z" fill="#8D8D91"/>
<path d="M14.1787 37.0572C18.6799 35.8565 23.0263 37.475 23.0263 37.475C23.0263 37.475 20.075 41.0403 15.5739 42.241C11.0728 43.4417 6.72637 41.8232 6.72637 41.8232C6.72637 41.8232 9.67764 38.2579 14.1787 37.0572Z" fill="#8D8D91"/>
<path d="M21.7735 23.6846V21.3746L27.7135 15.7646C28.1829 15.3392 28.5275 14.9579 28.7475 14.6206C28.9675 14.2832 29.1142 13.9752 29.1875 13.6966C29.2755 13.4179 29.3195 13.1612 29.3195 12.9266C29.3195 12.3106 29.1069 11.8412 28.6815 11.5186C28.2709 11.1812 27.6622 11.0126 26.8555 11.0126C26.2102 11.0126 25.6089 11.1372 25.0515 11.3866C24.5089 11.6359 24.0469 12.0246 23.6655 12.5526L21.0695 10.8806C21.6562 10.0006 22.4775 9.3039 23.5335 8.79057C24.5895 8.27724 25.8069 8.02057 27.1855 8.02057C28.3295 8.02057 29.3269 8.21124 30.1775 8.59257C31.0429 8.95924 31.7102 9.4799 32.1795 10.1546C32.6635 10.8292 32.9055 11.6359 32.9055 12.5746C32.9055 13.0732 32.8395 13.5719 32.7075 14.0706C32.5902 14.5546 32.3409 15.0679 31.9595 15.6106C31.5929 16.1532 31.0502 16.7619 30.3315 17.4366L25.4035 22.0786L24.7215 20.7806H33.4115V23.6846H21.7735ZM41.4821 23.9486C40.2208 23.9486 39.0914 23.6406 38.0941 23.0246C37.0968 22.3939 36.3121 21.4846 35.7401 20.2966C35.1681 19.1086 34.8821 17.6712 34.8821 15.9846C34.8821 14.2979 35.1681 12.8606 35.7401 11.6726C36.3121 10.4846 37.0968 9.58257 38.0941 8.96657C39.0914 8.3359 40.2208 8.02057 41.4821 8.02057C42.7581 8.02057 43.8874 8.3359 44.8701 8.96657C45.8674 9.58257 46.6521 10.4846 47.2241 11.6726C47.7961 12.8606 48.0821 14.2979 48.0821 15.9846C48.0821 17.6712 47.7961 19.1086 47.2241 20.2966C46.6521 21.4846 45.8674 22.3939 44.8701 23.0246C43.8874 23.6406 42.7581 23.9486 41.4821 23.9486ZM41.4821 20.9346C42.0834 20.9346 42.6041 20.7659 43.0441 20.4286C43.4988 20.0912 43.8508 19.5559 44.1001 18.8226C44.3641 18.0892 44.4961 17.1432 44.4961 15.9846C44.4961 14.8259 44.3641 13.8799 44.1001 13.1466C43.8508 12.4132 43.4988 11.8779 43.0441 11.5406C42.6041 11.2032 42.0834 11.0346 41.4821 11.0346C40.8954 11.0346 40.3748 11.2032 39.9201 11.5406C39.4801 11.8779 39.1281 12.4132 38.8641 13.1466C38.6148 13.8799 38.4901 14.8259 38.4901 15.9846C38.4901 17.1432 38.6148 18.0892 38.8641 18.8226C39.1281 19.5559 39.4801 20.0912 39.9201 20.4286C40.3748 20.7659 40.8954 20.9346 41.4821 20.9346Z" fill="#8D8D91"/>
<path d="M23.3213 32.3517C23.2253 32.3517 23.124 32.3437 23.0173 32.3277C22.916 32.3117 22.804 32.2903 22.6813 32.2637L22.7613 31.1677C22.836 31.189 22.9133 31.1997 22.9933 31.1997C23.212 31.1997 23.3826 31.1117 23.5053 30.9357C23.628 30.7543 23.716 30.4957 23.7693 30.1597C23.8226 29.8237 23.8573 29.4157 23.8733 28.9357L23.9533 26.6637H28.2573V32.2637H26.9773V27.4237L27.2733 27.7197H24.8013L25.0653 27.4077L25.0173 28.8877C25.0013 29.437 24.964 29.925 24.9053 30.3517C24.8466 30.7783 24.756 31.141 24.6333 31.4397C24.5106 31.7383 24.3426 31.965 24.1293 32.1197C23.916 32.2743 23.6466 32.3517 23.3213 32.3517ZM34.8479 28.9197H37.5439V29.9277H34.8479V28.9197ZM34.9439 31.2237H37.9919V32.2637H33.6559V26.6637H37.8879V27.7037H34.9439V31.2237ZM44.2467 32.2637V27.4237L44.5427 27.7197H42.4627V26.6637H47.3187V27.7197H45.2387L45.5267 27.4237V32.2637H44.2467Z" fill="#8D8D91"/>
<path d="M51.8647 9.12412C53.0708 13.6052 56.6519 16.5433 56.6519 16.5433C56.6519 16.5433 58.2777 12.2162 57.0716 7.73514C55.8655 3.25406 52.2844 0.315918 52.2844 0.315918C52.2844 0.315918 50.6586 4.64304 51.8647 9.12412Z" fill="#8D8D91"/>
<path d="M58.9794 12.6855C57.7733 17.1666 59.3991 21.4937 59.3991 21.4937C59.3991 21.4937 62.9802 18.5556 64.1863 14.0745C65.3924 9.59344 63.7666 5.26632 63.7666 5.26632C63.7666 5.26632 60.1854 8.20446 58.9794 12.6855Z" fill="#8D8D91"/>
<path d="M62.1279 21.1664C58.8329 24.4467 58.0676 29.0034 58.0676 29.0034C58.0676 29.0034 62.6446 28.2415 65.9397 24.9611C69.2347 21.6808 70 17.1241 70 17.1241C70 17.1241 65.423 17.886 62.1279 21.1664Z" fill="#8D8D91"/>
<path d="M60.3309 30.0764C55.8298 31.2771 52.8785 34.8424 52.8785 34.8424C52.8785 34.8424 57.225 36.4609 61.7261 35.2602C66.2272 34.0595 69.1785 30.4942 69.1785 30.4942C69.1785 30.4942 64.832 28.8757 60.3309 30.0764Z" fill="#8D8D91"/>
<path d="M55.8213 37.0572C51.3201 35.8565 46.9737 37.475 46.9737 37.475C46.9737 37.475 49.925 41.0403 54.4261 42.241C58.9272 43.4417 63.2736 41.8232 63.2736 41.8232C63.2736 41.8232 60.3224 38.2579 55.8213 37.0572Z" fill="#8D8D91"/>
</svg>
