<svg width="48" height="19" viewBox="0 0 48 19" fill="none" xmlns="http://www.w3.org/2000/svg">
<path d="M0 4.06166V19H7.96949V2.40247L0 4.06166Z" fill="white"/>
<path d="M11.5405 1.65906V11.8075C11.5405 16.8865 16.6941 19 23.052 19H29.8201L27.5745 14.0206H23.9375C21.4935 14.0206 19.51 13.6665 19.51 11.2542V9.0411H25.2642V8.89765L23.0832 4.06166H19.51V0L11.5405 1.65906Z" fill="white"/>
<path d="M35.9885 19H33.8288L31.5832 14.0206H35.103C37.547 14.0206 39.5305 13.6665 39.5305 11.2542V9.0411H36.0188L33.7807 4.06166L47.5 4.06166V11.8075C47.5 16.8865 42.3464 19 35.9885 19Z" fill="white"/>
</svg>
