<svg width="194" height="48" viewBox="0 0 194 48" fill="none" xmlns="http://www.w3.org/2000/svg">
<rect x="68" width="8" height="7" fill="#A71815"/>
<path d="M52 37H57V38H53V42.0864H57V43.0864H53V47H57V48H52V37Z" fill="black"/>
<path d="M2 37H3L6.5 46.5L10 37H11L12 48H11L10.1905 39.5236L7 48H6L2.80955 39.5236L2 48H1L2 37Z" fill="black"/>
<path d="M144 37V48H149V47H145V43.0864H149V42.0864H145V38H149V37H144Z" fill="black"/>
<path d="M190 37H189V48H194V47H190V37Z" fill="black"/>
<path fill-rule="evenodd" clip-rule="evenodd" d="M97.5 37V48H100.5C101.406 48 102.273 47.7702 102.926 47.2675C103.595 46.7529 104 45.9802 104 45C104 44.0198 103.595 43.2471 102.926 42.7325C102.691 42.5516 102.429 42.4061 102.147 42.2939C102.208 42.2513 102.268 42.207 102.326 42.1613C102.979 41.6496 103.5 40.8936 103.5 40C103.5 38.3431 102.157 37 100.5 37H97.5ZM100 43C100.166 43 100.5 43 100.5 43C101.251 43 101.884 43.1918 102.316 43.5249C102.734 43.8461 103 44.3233 103 45C103 45.6767 102.734 46.1539 102.316 46.4751C101.884 46.8082 101.251 47 100.5 47H98.5V43H100ZM100 42H98.5V38H100.5C101.605 38 102.5 38.8954 102.5 40C102.5 40.4871 102.211 40.9811 101.709 41.3742C101.21 41.7658 100.566 42 100 42Z" fill="black"/>
<path d="M14.5 0C7.0594 0 0 4.31831 0 14V30H44V22H9V19H44V11H9.03912C9.27021 8.26576 12.9757 8 15.5 8H44V0H14.5Z" fill="black"/>
<path d="M49 0H58V22H79.5C81.7459 22 83.1329 21.6339 83.879 21.1276C84.3186 20.8293 85 20.2047 85 18H94C94 22.2953 92.4314 25.6707 89.371 27.7474C86.6171 29.6161 83.2541 30 80.5 30H49V0Z" fill="black"/>
<path fill-rule="evenodd" clip-rule="evenodd" d="M167.5 0C158.797 0 150 5.41032 150 15V30H159V23H185V30H194V0H167.5ZM185 15H159C159 9.75073 164.15 8 168.5 8H185V15Z" fill="black"/>
<path d="M100 0H104C112.675 0 119.273 3.23389 125.684 9.03386C129.038 12.0691 131.765 15.6605 135 18.7997V0H144V30H140C132.5 30 126.031 20.1363 120.316 14.9661C117.088 12.0451 113.394 9.68592 109 9.17078V30H100V0Z" fill="black"/>
</svg>
