<svg width="130" height="32" viewBox="0 0 130 32" fill="none" xmlns="http://www.w3.org/2000/svg">
<rect x="51.7109" y="5" width="3.66666" height="3.20833" fill="white"/>
<path d="M44.3789 21.9583H46.6706V22.4166H44.8372V24.2895H46.6706V24.7479H44.8372V26.5416H46.6706V26.9999H44.3789V21.9583Z" fill="white"/>
<path d="M21.4622 21.9583H21.9206L23.5247 26.3124L25.1289 21.9583H25.5872L26.0456 26.9999H25.5872L25.2162 23.1149L23.7539 26.9999H23.2956L21.8333 23.1149L21.4622 26.9999H21.0039L21.4622 21.9583Z" fill="white"/>
<path d="M86.5455 21.9583V26.9999H88.8372V26.5416H87.0039V24.7479H88.8372V24.2895H87.0039V22.4166H88.8372V21.9583H86.5455Z" fill="white"/>
<path d="M107.629 21.9583H107.171V26.9999H109.462V26.5416H107.629V21.9583Z" fill="white"/>
<path fill-rule="evenodd" clip-rule="evenodd" d="M65.2331 21.9583V26.9999H66.608C67.0233 26.9999 67.4208 26.8946 67.7201 26.6642C68.0265 26.4283 68.2122 26.0742 68.2122 25.6249C68.2122 25.1757 68.0265 24.8215 67.7201 24.5856C67.6124 24.5027 67.492 24.436 67.3627 24.3846C67.3908 24.3651 67.4183 24.3448 67.445 24.3239C67.7444 24.0893 67.983 23.7428 67.983 23.3333C67.983 22.5739 67.3674 21.9583 66.608 21.9583H65.2331ZM66.3789 24.7082C66.4548 24.7082 66.608 24.7082 66.608 24.7082C66.9521 24.7082 67.2422 24.7962 67.4405 24.9488C67.6318 25.096 67.7539 25.3148 67.7539 25.6249C67.7539 25.9351 67.6318 26.1538 67.4405 26.301C67.2422 26.4537 66.9521 26.5416 66.608 26.5416H65.6914V24.7082H66.3789ZM66.3789 24.2499H65.6914V22.4166H66.608C67.1143 22.4166 67.5247 22.827 67.5247 23.3333C67.5247 23.5565 67.3923 23.7829 67.1623 23.9631C66.9333 24.1426 66.6383 24.2499 66.3789 24.2499Z" fill="white"/>
<path d="M27.1888 5C23.7785 5 20.543 6.97922 20.543 11.4167V18.75H40.7096V15.0833H24.668V13.7083H40.7096V10.0417H24.6859C24.7918 8.78847 26.4902 8.66666 27.6471 8.66666H40.7096V5H27.1888Z" fill="white"/>
<path d="M43.0013 5H47.1263V15.0833H56.9804C58.0098 15.0833 58.6455 14.9155 58.9875 14.6835C59.189 14.5468 59.5013 14.2605 59.5013 13.25H63.6263C63.6263 15.2187 62.9073 16.7657 61.5046 17.7175C60.2424 18.5741 58.7011 18.75 57.4388 18.75H43.0013V5Z" fill="white"/>
<path fill-rule="evenodd" clip-rule="evenodd" d="M97.3137 5C93.3247 5 89.2929 7.47973 89.2929 11.875V18.75H93.4179V15.5417H105.335V18.75H109.46V5H97.3137ZM105.335 11.875H93.4179C93.4179 9.46908 95.7782 8.66666 97.7721 8.66666H105.335V11.875Z" fill="white"/>
<path d="M66.3763 5H68.2096C72.1856 5 75.2098 6.4822 78.1479 9.14051C79.6855 10.5317 80.9354 12.1777 82.4179 13.6165V5H86.5429V18.75H84.7096C81.2721 18.75 78.307 14.2291 75.6879 11.8595C74.2082 10.5207 72.5152 9.43938 70.5013 9.20327V18.75H66.3763V5Z" fill="white"/>
</svg>
