<svg width="91" height="86" viewBox="0 0 91 86" fill="none" xmlns="http://www.w3.org/2000/svg">
<path d="M11.4016 36.3407C11.8923 32.6476 14.0706 29.3918 17.2971 27.529L58.9453 3.48339C61.815 1.82654 65.4846 2.80979 67.1414 5.67955L87.1414 40.3206C88.7983 43.1903 87.815 46.8599 84.9453 48.5167L43.2971 72.5623C40.0706 74.4251 36.1619 74.6837 32.7181 73.2621L12.1255 64.7612C9.61045 63.7229 8.10889 61.1222 8.46728 58.4249L11.4016 36.3407Z" fill="#A81815"/>
<path d="M11.4016 36.3407C11.8923 32.6476 14.0706 29.3918 17.2971 27.529L58.9453 3.48339C61.815 1.82654 65.4846 2.80979 67.1414 5.67955L87.1414 40.3206C88.7983 43.1903 87.815 46.8599 84.9453 48.5167L43.2971 72.5623C40.0706 74.4251 36.1619 74.6837 32.7181 73.2621L12.1255 64.7612C9.61045 63.7229 8.10889 61.1222 8.46728 58.4249L11.4016 36.3407Z" fill="#DE2C29"/>
<path d="M18.25 57.0002C17.1454 55.0871 17.8009 52.6407 19.7141 51.5361V51.5361C21.6273 50.4316 24.0736 51.0871 25.1782 53.0002V53.0002C26.2828 54.9134 25.6273 57.3598 23.7141 58.4643V58.4643C21.8009 59.5689 19.3546 58.9134 18.25 57.0002V57.0002Z" fill="white"/>
<path d="M28.8438 39.3393C26.6346 35.513 27.9456 30.6203 31.772 28.4111V28.4111C35.5983 26.202 40.491 27.513 42.7002 31.3393V31.3393C44.9093 35.1657 43.5983 40.0584 39.772 42.2675V42.2675C35.9456 44.4767 31.0529 43.1657 28.8438 39.3393V39.3393Z" stroke="white" stroke-linejoin="round"/>
<path d="M56.1563 46.6606C53.9471 42.8343 55.2581 37.9416 59.0845 35.7324V35.7324C62.9108 33.5233 67.8035 34.8343 70.0127 38.6606V38.6606C72.2218 42.487 70.9108 47.3797 67.0845 49.5888V49.5888C63.2581 51.798 58.3654 50.487 56.1563 46.6606V46.6606Z" stroke="white" stroke-linejoin="round"/>
<path d="M55.2831 17.1436L43.5703 60.8564" stroke="white"/>
</svg>
