<svg width="79" height="60" viewBox="0 0 79 60" fill="none" xmlns="http://www.w3.org/2000/svg">
<path fill-rule="evenodd" clip-rule="evenodd" d="M10.7779 19.2463C11.4037 18.1655 12.558 17.5 13.8069 17.5H65.1945C66.4434 17.5 67.5978 18.1655 68.2235 19.2464L77.126 34.6234C77.3418 34.9962 77.5192 35.388 77.6564 35.7927C76.8442 34.9932 75.7297 34.5 74.5 34.5H4.50195C3.27137 34.5 2.15614 34.994 1.34375 35.7944C1.48108 35.3891 1.65865 34.9967 1.87482 34.6233L10.7779 19.2463ZM0.00195312 49H0V37.8802C0 36.5606 0.348188 35.2643 1.00941 34.1223L9.9125 18.7452C10.7171 17.3556 12.2011 16.5 13.8069 16.5H65.1945C66.8003 16.5 68.2844 17.3557 69.0889 18.7453L77.9914 34.1224C78.6526 35.2644 79.0007 36.5606 79.0007 37.8801V48H79V51C79 52.3807 77.8807 53.5 76.5 53.5H2.50195C1.12124 53.5 0.00195312 52.3807 0.00195312 51V49ZM1.00195 39C1.00195 37.067 2.56896 35.5 4.50195 35.5H74.5C76.433 35.5 78 37.067 78 39V51C78 51.8284 77.3284 52.5 76.5 52.5H2.50195C1.67353 52.5 1.00195 51.8284 1.00195 51V39Z" fill="#272727"/>
<path d="M66.5 17V5C66.5 2.79086 64.7092 1 62.5 1H16.5C14.2909 1 12.5 2.79086 12.5 5V17" stroke="#272727" stroke-linecap="square"/>
<path d="M6.5 53V59H72.5V53" stroke="#272727" stroke-linejoin="round"/>
<path d="M20.3775 13.3675C20.6497 12.5509 21.414 12 22.2749 12H35.5C36.6046 12 37.5 12.8954 37.5 14V20C37.5 21.1046 36.6046 22 35.5 22H20.2749C18.9097 22 17.9458 20.6626 18.3775 19.3675L20.3775 13.3675Z" fill="white" stroke="#272727"/>
<path d="M41.5 14C41.5 12.8954 42.3954 12 43.5 12H56.7251C57.586 12 58.3503 12.5509 58.6225 13.3675L60.6225 19.3675C61.0542 20.6626 60.0903 22 58.7251 22H43.5C42.3954 22 41.5 21.1046 41.5 20V14Z" fill="white" stroke="#272727"/>
</svg>
