<?xml version="1.0" standalone="no"?>
<!DOCTYPE svg PUBLIC "-//W3C//DTD SVG 1.1//EN" "http://www.w3.org/Graphics/SVG/1.1/DTD/svg11.dtd" >
<svg xmlns="http://www.w3.org/2000/svg">
<metadata>Generated by IcoMoon</metadata>
<defs>
<font id="elna-mebel-font" horiz-adv-x="1024">
<font-face units-per-em="1024" ascent="960" descent="-64" />
<missing-glyph horiz-adv-x="1024" />
<glyph unicode="&#x20;" horiz-adv-x="512" d="" />
<glyph unicode="&#xe900;" glyph-name="mebel-loft" d="M131.851 655.522c-40.184 0-67.331-41.018-51.626-78.007l13.511-31.822 35.58-80.991c8.95-20.373 29.098-33.529 51.351-33.529h658.070c22.253 0 42.4 13.156 51.351 33.529l35.606 81.054 13.483 31.759c15.704 36.989-11.442 78.007-51.627 78.007h-755.698zM943.289 530.026l-32.663-74.348c-12.53-28.523-40.737-46.94-71.891-46.94h-658.070c-31.154 0-59.361 18.417-71.891 46.94l-32.639 74.296c-38.824-1.64-64.544-41.745-49.148-77.973l16.1-37.881c15.84-37.271 52.417-61.469 92.914-61.469h753.86c42.084 0 79.754 26.105 94.529 65.508l13.533 36.087c13.75 36.667-13.356 75.781-52.516 75.781h-2.12zM66.851 551.606l-7.278 17.141c-21.987 51.784 16.019 109.21 72.277 109.21h755.698c56.26 0 94.265-57.426 72.278-109.21l-7.056-16.619c50.79-4.634 84.535-56.758 66.158-105.76l-13.53-36.087c-18.060-48.159-64.101-80.065-115.538-80.065h-753.86c-49.496 0-94.202 29.576-113.561 75.128l-16.1 37.883c-20.439 48.090 10.876 101.062 60.511 108.379zM260.52 329.881l-58.074-92.919c-7.356-11.769-20.256-18.919-34.136-18.919-26.188 0-45.404 24.611-39.052 50.019l17.622 70.486 21.765-5.441-17.622-70.488c-2.812-11.246 5.695-22.141 17.287-22.141 6.144 0 11.854 3.165 15.111 8.375l58.074 92.919 19.025-11.891zM760.991 329.881l58.075-92.919c7.356-11.769 20.256-18.919 34.135-18.919 26.188 0 45.404 24.611 39.052 50.019l-17.622 70.486-21.764-5.441 17.621-70.488c2.813-11.246-5.694-22.141-17.286-22.141-6.145 0-11.855 3.165-15.11 8.375l-58.075 92.919-19.025-11.891zM213.131 477.444c0 30.976 25.111 56.087 56.087 56.087h96.753c30.976 0 56.087-25.111 56.087-56.087v-48.376h-22.435v48.376c0 18.586-15.067 33.652-33.652 33.652h-96.753c-18.585 0-33.652-15.067-33.652-33.652v-48.376h-22.435v48.376zM586.111 477.444c0 30.976 25.111 56.087 56.087 56.087h96.753c30.976 0 56.087-25.111 56.087-56.087v-48.376h-22.435v48.376c0 18.586-15.067 33.652-33.652 33.652h-96.753c-18.585 0-33.652-15.067-33.652-33.652v-48.376h-22.435v48.376z" />
<glyph unicode="&#xe901;" glyph-name="view" d="M512 320c-70.692 0-128 57.308-128 128s57.308 128 128 128c70.692 0 128-57.308 128-128s-57.308-128-128-128zM512 256c106.038 0 192 85.962 192 192s-85.962 192-192 192c-106.038 0-192-85.962-192-192s85.962-192 192-192zM0 448c0 0 207.269 320 512 320s512-320 512-320-207.27-320-512-320c-304.731 0-512 320-512 320zM79.166 448c2.435-3.116 5.036-6.397 7.8-9.825 22.563-27.979 55.591-65.248 97.303-102.363 84.653-75.326 197.956-143.812 327.731-143.812 129.773 0 243.078 68.486 327.731 143.812 41.709 37.115 74.739 74.384 97.306 102.363 2.758 3.428 5.363 6.708 7.795 9.825-2.432 3.116-5.037 6.397-7.795 9.825-22.566 27.979-55.597 65.248-97.306 102.363-84.653 75.324-197.958 143.812-327.731 143.812s-243.078-68.489-327.731-143.812c-41.712-37.115-74.74-74.384-97.303-102.363-2.764-3.428-5.366-6.708-7.8-9.825z" />
<glyph unicode="&#xe902;" glyph-name="arrow-up" d="M0 192h1024l-512 512-512-512z" />
<glyph unicode="&#xe903;" glyph-name="minus" d="M0 487.384h1024v-78.769h-1024v78.769z" />
<glyph unicode="&#xe904;" glyph-name="subscribes" d="M-0.001 763.535c0 3.287 2.666 5.953 5.953 5.953h1012.094c3.287 0 5.953-2.666 5.953-5.953v-631.070c0-3.287-2.666-5.953-5.953-5.953h-1012.094c-3.287 0-5.953 2.666-5.953 5.953v631.070zM25.654 757.582l486.345-323.468 486.345 323.468h-972.69zM1012.092 752.426l-363.695-241.892 363.695-363.695v605.588zM1003.673 138.419l-365.388 365.388-122.988-81.8c-1.997-1.328-4.597-1.328-6.594 0l-122.453 81.443-365.031-365.031h982.454zM11.906 145.946l364.231 364.231-364.231 242.249v-606.481z" />
<glyph unicode="&#xe905;" glyph-name="3d-vision" d="M761.29 731.093l54.33-81.612-47.647-28.029 0.005-201 165.521 97.371-51.199 30.121 137.495 16.172-27.494-80.886-48.286 28.407-170.853-100.508 170.868-100.521 48.34 28.438 31.63-96.184-139.485 32.737 48.998 28.824-176.2 103.659-0.005 207.098-50.171-29.514 54.152 145.429zM763.992 707.789l-36.384-97.711 72.887 42.876-36.503 54.835zM915.038 541.055l71.381-41.994 17.841 52.488-89.223-10.494zM986.374 323.145l-73.514-43.246 95.072-22.314-21.559 65.559zM271.999 512.965l-95.744-119.142c4.268-0.399 8.414-0.917 12.436-1.549 65.013-10.21 97.957-50.27 97.957-103.888 0-62.207-45.518-112.816-138.645-112.816-52.318 0-103.591 16.87-134.459 44.81l24.067 41.647c2.574-2.428 5.327-4.782 8.243-7.049 24.938-19.389 61.866-32.489 102.15-32.489 54.935 0 86.327 25.305 86.327 65.371 0 39.011-27.728 64.315-90.512 64.315h-29.299v36.903l92.082 113.871h-176.315v45.864h241.714v-35.848zM184.262 492.285l-80.407-99.435v-51.338h39.962c30.207 0 50.173-6.126 62.358-15.362 11.71-8.876 17.49-21.57 17.49-38.289 0-16.95-6.484-30.079-18.406-39.261-12.256-9.441-31.265-15.445-57.256-15.445-42.654 0-80.724 15.548-103.075 36.632l-9.806 9.25-35.122-60.779 6.387-5.782c33.33-30.169 87.415-47.568 141.615-47.568 48.451 0 85.872 13.183 111.324 35.768 25.544 22.667 37.986 53.901 37.986 87.711 0 30.889-10.141 58.391-30.863 79.051-17.083 17.030-40.699 28.763-70.123 34.337l86.337 107.437v50.266h-263.041v-67.193h164.641zM354.602 169.125v390.352h165.004c61.127 0 113.307-19.464 150.304-54.005 37.057-34.598 58.126-83.63 58.126-141.171s-21.069-106.573-58.126-141.17c-36.997-34.541-89.177-54.005-150.304-54.005h-165.004zM519.605 179.79c117.717 0 197.766 74.86 197.766 184.512s-80.048 184.513-197.766 184.513h-154.34v-369.025h154.34zM428.248 492.285h88.219c43.056 0 77.418-13.261 100.924-35.387 23.452-22.076 36.997-53.807 36.997-92.597s-13.545-70.522-36.997-92.596c-23.507-22.127-57.869-35.387-100.924-35.387h-88.219v255.968zM417.583 225.654h98.884c90.511 0 148.586 55.88 148.586 138.648s-58.075 138.649-148.586 138.649h-98.884v-277.296z" />
<glyph unicode="&#xe906;" glyph-name="plus" d="M487.619-64v1024h48.762v-1024h-48.762zM0 472.381h1024v-48.762h-1024v48.762z" />
<glyph unicode="&#xe907;" glyph-name="arrow-forward" d="M0.001 475.317h983.57v-54.643h-983.57v54.643zM674.172 768.675l349.828-320.673-349.828-320.677-36.922 40.283 305.885 280.394-305.885 280.394 36.922 40.28z" />
<glyph unicode="&#xe908;" glyph-name="arrow-left" d="M760-64v1024l-512-512 512-512z" />
<glyph unicode="&#xe909;" glyph-name="arrow-right" d="M256-64v1024l512-512-512-512z" />
<glyph unicode="&#xe90a;" glyph-name="bedroom" d="M73.145 850.291c0 33.663 27.289 60.953 60.953 60.953h755.817c33.663 0 60.953-27.289 60.953-60.953v-621.718h-24.381v621.718c0 20.198-16.374 36.572-36.572 36.572h-377.889l1.050-658.271-24.381-0.039-1.050 658.309h-97.544v-658.288h-24.381v414.475h-268.194v-414.481h-24.381v621.72zM97.526 850.291v-60.953h268.194v97.524h-231.622c-20.198 0-36.572-16.374-36.572-36.572zM365.72 764.956h-121.906v-97.524h121.906v97.524zM219.433 667.432v97.524h-121.906v-97.524h121.906zM0.002 167.605c-0.007 33.668 27.285 60.965 60.953 60.965h877.701v-24.381h-877.701c-20.201 0-36.576-16.38-36.572-36.579l0.018-85.329h914.287v-24.381h-938.663l-0.023 109.705zM926.488 496.764h36.559c33.665 0 60.953-27.289 60.953-60.953v-402.294c0-26.929-21.829-48.757-48.755-48.757-26.929 0-48.757 21.829-48.757 48.757v463.248zM950.869 472.382v-438.866c0-13.463 10.913-24.376 24.376-24.376 13.461 0 24.374 10.913 24.374 24.376v402.294c0 20.198-16.372 36.572-36.572 36.572h-12.178zM24.383 82.283v-48.763c0-13.465 10.916-24.381 24.381-24.381s24.381 10.916 24.381 24.381v48.763h24.381v-48.763c0-26.932-21.832-48.763-48.763-48.763s-48.763 21.831-48.763 48.763v48.763h24.381zM815.619 328.455c54.37 18.122 110.873-22.777 110.873-80.458 0-10.757-8.741-19.426-19.269-19.426h-166.346c-10.625 0-17.894 10.733-13.946 20.6 14.553 36.387 44.391 64.52 81.568 76.91l7.119 2.375zM800.79 349.21c-43.981-14.661-79.277-47.941-96.496-90.986-10.352-25.88 8.709-54.036 36.584-54.036h166.346c24.108 0 43.65 19.7 43.65 43.808 0 74.136-72.632 127.031-142.964 103.588l-7.119-2.375z" />
<glyph unicode="&#xe90b;" glyph-name="cabinet-chest" d="M-0.001 436.363c0 6.425 5.21 11.637 11.637 11.637h1000.727c6.425 0 11.637-5.211 11.637-11.637v-209.454c0-19.28-15.629-34.909-34.909-34.909h-954.182c-19.28 0-34.909 15.629-34.909 34.909v209.454zM23.272 424.727v-46.546h977.454v46.546h-977.454zM1000.726 354.908h-465.455v-139.636h453.818c6.425 0 11.637 5.211 11.637 11.637v128zM511.999 215.272v139.636h-488.727v-128c0-6.425 5.21-11.637 11.637-11.637h477.090zM197.817 296.727c0 6.425 5.211 11.637 11.637 11.637h93.091c6.425 0 11.637-5.211 11.637-11.637s-5.211-11.637-11.637-11.637h-93.091c-6.425 0-11.637 5.211-11.637 11.637zM453.817 64c0 6.425 5.211 11.637 11.637 11.637h93.091c6.425 0 11.637-5.211 11.637-11.637s-5.211-11.637-11.637-11.637h-93.091c-6.425 0-11.637 5.211-11.637 11.637zM733.090 296.727c0 6.425 5.211 11.637 11.637 11.637h93.091c6.425 0 11.637-5.211 11.637-11.637s-5.211-11.637-11.637-11.637h-93.091c-6.425 0-11.637 5.211-11.637 11.637zM69.818 203.636c0 6.425 5.21 11.637 11.637 11.637h861.090c6.425 0 11.637-5.211 11.637-11.637v-209.454c0-6.425-5.211-11.637-11.637-11.637h-861.090c-6.427 0-11.637 5.211-11.637 11.637v209.454zM93.090 192v-46.546h837.818v46.546h-837.818zM930.908 122.182h-837.818v-116.364h837.818v116.364zM139.636 901.818c0 6.427 5.21 11.637 11.637 11.637h721.454c6.425 0 11.637-5.21 11.637-11.637v-372.363c0-6.425-5.211-11.637-11.637-11.637h-62.089l70.319-70.317-16.459-16.459-86.772 86.774h-531.451l-86.773-86.774-16.456 16.459 70.318 70.317h-62.089c-6.427 0-11.637 5.211-11.637 11.637v372.363zM162.908 890.181v-349.091h698.182v349.091h-698.182z" />
<glyph unicode="&#xe90c;" glyph-name="cab-shelving" d="M134.096 899.048c0 33.663 27.289 60.952 60.952 60.952h633.906c33.663 0 60.952-27.289 60.952-60.952v-902.096c0-33.663-27.289-60.952-60.952-60.952h-633.906c-33.663 0-60.952 27.289-60.952 60.952v902.096zM195.048 935.62c-20.198 0-36.571-16.374-36.571-36.571v-902.096c0-20.198 16.374-36.571 36.571-36.571h633.906c20.198 0 36.571 16.374 36.571 36.571v902.096c0 20.198-16.374 36.571-36.571 36.571h-633.906zM865.525 374.857h-707.049v24.381h707.049v-24.381zM865.525 228.571h-707.049v24.381h707.049v-24.381zM426.667 313.905c0 6.731 5.459 12.191 12.191 12.191h146.286c6.731 0 12.191-5.459 12.191-12.191s-5.459-12.191-12.191-12.191h-146.286c-6.731 0-12.191 5.459-12.191 12.191zM426.667 167.619c0 6.731 5.459 12.191 12.191 12.191h146.286c6.731 0 12.191-5.459 12.191-12.191s-5.459-12.191-12.191-12.191h-146.286c-6.731 0-12.191 5.459-12.191 12.191zM499.81 374.857v560.763h24.381v-560.763h-24.381zM390.096 679.62c6.731 0 12.191-5.459 12.191-12.191v-97.524c0-6.731-5.459-12.191-12.191-12.191s-12.191 5.459-12.191 12.191v97.524c0 6.731 5.459 12.191 12.191 12.191zM633.905 679.62c6.731 0 12.191-5.459 12.191-12.191v-97.524c0-6.731-5.459-12.191-12.191-12.191s-12.191 5.459-12.191 12.191v97.524c0 6.731 5.459 12.191 12.191 12.191z" />
<glyph unicode="&#xe90e;" glyph-name="coupon-mebel" d="M601.598 898.439l106.337 22.587 59.219-91.162 106.883-19.825 19.826-106.885 91.162-59.219-22.586-106.337 61.56-89.598-61.56-89.598 22.586-106.337-91.162-59.219-19.826-106.883-106.883-19.826-59.219-91.162-106.337 22.586-89.598-61.56-89.598 61.56-106.337-22.586-59.219 91.162-106.885 19.826-19.825 106.883-91.162 59.219 22.587 106.337-61.561 89.598 61.561 89.598-22.587 106.337 91.162 59.219 19.825 106.885 106.885 19.825 59.219 91.162 106.337-22.587 89.598 61.561 89.598-61.561zM696.613 893.697l-100.191-21.282-84.422 58.003-84.422-58.003-100.191 21.282-55.798-85.895-100.711-18.68-18.68-100.711-85.895-55.798 21.282-100.191-58.003-84.422 58.003-84.422-21.282-100.191 85.895-55.798 18.68-100.711 100.711-18.681 55.798-85.894 100.191 21.282 84.422-58.005 84.422 58.005 100.191-21.282 55.798 85.894 100.711 18.681 18.681 100.711 85.894 55.798-21.282 100.191 58.005 84.422-58.005 84.422 21.282 100.191-85.894 55.798-18.681 100.711-100.711 18.68-55.798 85.895zM403.024 704h323.898l-130.033-255.419h144.253l-402.006-329.474 102.693 305.094h-142.402l103.597 279.801zM419.997 679.619l-85.543-231.039h141.307l-86.445-256.829 283.616 232.448h-115.811l130.031 255.419h-267.154zM234.533 509.73l-91.433 24.498 6.31 23.55 91.432-24.498-6.31-23.55zM874.562 338.234l-91.433 24.498 6.31 23.55 91.433-24.498-6.31-23.55zM259.982 579.427l-81.976 47.328 12.191 21.117 81.976-47.33-12.191-21.114zM833.816 248.125l-81.976 47.328 12.191 21.117 81.976-47.33-12.191-21.114z" />
<glyph unicode="&#xe90f;" glyph-name="credit-cashback" d="M15.446 769.392c1.264 1.264 2.977 1.974 4.765 1.974l646.751-0.006c3.721 0 6.736-3.016 6.736-6.736l-0.013-821.889c0-3.72-3.016-6.736-6.736-6.736h-646.738c-1.786 0-3.5 0.71-4.765 1.974-1.262 1.262-1.973 2.976-1.973 4.763v821.897c0 1.786 0.71 3.5 1.973 4.763zM26.96 474.945l-0.003-121.263h148.21l0.003 121.263h-148.21zM188.644 474.945l-0.003-121.263h148.21l0.003 121.263h-148.21zM350.328 474.945l-0.003-121.263h148.21l0.003 121.263h-148.21zM512.013 474.945l-0.003-121.263h148.21l0.003 121.263h-148.21zM660.223 488.419v269.467l-633.277 0.006 0.013-269.473h633.264zM660.22 340.209h-148.21l-0.003-121.263h148.21l0.003 121.263zM660.217 205.472h-148.21l-0.005-256.001h148.21l0.005 256.001zM498.526-50.529l0.003 121.263h-148.21l-0.003-121.263h148.21zM336.842-50.529l0.003 121.263h-148.21l-0.003-121.263h148.21zM175.157-50.529l0.003 121.263h-148.21l-0.003-121.263h148.21zM26.95 84.208h148.21l0.004 121.263h-148.21l-0.004-121.263zM26.953 218.946h148.21l0.003 121.263h-148.21l-0.003-121.263zM188.64 340.209l-0.003-121.263h148.21l0.003 121.263h-148.21zM350.325 340.209l-0.003-121.263h148.21l0.003 121.263h-148.21zM498.532 205.472h-148.209l-0.004-121.263h148.21l0.003 121.263zM336.844 84.208l0.004 121.263h-148.21l-0.004-121.263h148.21zM559.158 63.998c0 3.72 3.016 6.736 6.736 6.736h43.787c3.72 0 6.736-3.016 6.736-6.736s-3.016-6.736-6.736-6.736h-43.787c-3.72 0-6.736 3.016-6.736 6.736zM559.158 90.945c0 3.72 3.016 6.736 6.736 6.736h43.787c3.72 0 6.736-3.016 6.736-6.736s-3.016-6.736-6.736-6.736h-43.787c-3.72 0-6.736 3.016-6.736 6.736zM584.442 683.567c3.6-0.939 5.757-4.619 4.818-8.219l-30.316-116.211c-0.939-3.6-4.619-5.757-8.219-4.818s-5.757 4.621-4.818 8.221l30.316 116.209c0.939 3.6 4.619 5.757 8.219 4.818zM503.6 683.567c3.6-0.939 5.757-4.619 4.818-8.219l-30.316-116.211c-0.939-3.6-4.619-5.757-8.219-4.818s-5.757 4.621-4.818 8.221l30.316 116.209c0.939 3.6 4.619 5.757 8.219 4.818zM338.815 958.025c1.264 1.264 2.977 1.974 4.765 1.974l660.212-0.006c3.72 0 6.736-3.016 6.736-6.736l-0.009-673.688c0-1.786-0.709-3.499-1.973-4.763l-148.201-148.203c-1.264-1.262-2.977-1.973-4.765-1.973h-188.631c-3.72 0-6.736 3.016-6.736 6.736s3.016 6.736 6.736 6.736h181.895l-0.004 141.465c0 1.786 0.71 3.5 1.974 4.765 1.262 1.264 2.976 1.973 4.763 1.973h141.47l0.008 660.215-646.738 0.006 0.013-181.895c0-3.72-3.015-6.736-6.735-6.736s-6.738 3.015-6.738 6.736l-0.013 188.631c0 1.786 0.71 3.5 1.973 4.763zM987.516 272.831h-125.204l0.004-125.201 125.201 125.201zM768.001 858.945c0 3.72 3.016 6.736 6.736 6.736h67.368c40.928 0 74.106-33.178 74.106-74.106s-33.178-74.106-74.106-74.106h-60.632v-26.947h101.053c3.72 0 6.736-3.016 6.736-6.736s-3.016-6.736-6.736-6.736h-101.053v-33.685c0-3.72-3.016-6.736-6.736-6.736s-6.736 3.016-6.736 6.736v33.685h-13.474c-3.72 0-6.736 3.016-6.736 6.736s3.016 6.736 6.736 6.736h13.474v26.947h-13.474c-3.72 0-6.736 3.016-6.736 6.736s3.016 6.736 6.736 6.736h13.474v128zM781.473 730.946h60.632c33.486 0 60.632 27.145 60.632 60.632s-27.145 60.632-60.632 60.632h-60.632v-121.263zM747.79 575.998c0 3.72 3.016 6.736 6.736 6.736h128c3.72 0 6.736-3.016 6.736-6.736s-3.016-6.736-6.736-6.736h-128c-3.72 0-6.736 3.016-6.736 6.736zM747.79 535.577c0 3.72 3.016 6.736 6.736 6.736h128c3.72 0 6.736-3.016 6.736-6.736s-3.016-6.736-6.736-6.736h-128c-3.72 0-6.736 3.016-6.736 6.736zM747.79 495.156c0 3.72 3.016 6.736 6.736 6.736h128c3.72 0 6.736-3.016 6.736-6.736s-3.016-6.736-6.736-6.736h-128c-3.72 0-6.736 3.016-6.736 6.736zM747.79 454.734c0 3.72 3.016 6.736 6.736 6.736h128c3.72 0 6.736-3.016 6.736-6.736s-3.016-6.736-6.736-6.736h-128c-3.72 0-6.736 3.016-6.736 6.736zM747.79 414.313c0 3.72 3.016 6.736 6.736 6.736h128c3.72 0 6.736-3.016 6.736-6.736s-3.016-6.736-6.736-6.736h-128c-3.72 0-6.736 3.016-6.736 6.736z" />
<glyph unicode="&#xe910;" glyph-name="econom-mebel" d="M364.089 413.868c0 6.283 5.095 11.378 11.378 11.378h637.155c6.283 0 11.378-5.095 11.378-11.378v-273.066c0-6.283-5.095-11.378-11.378-11.378h-637.155c-6.283 0-11.378 5.095-11.378 11.378v273.066zM386.845 402.49v-250.311h295.821v250.311h-295.821zM705.422 402.49v-250.311h295.821v250.311h-295.821zM216.178 504.889c6.283 0 11.378-5.095 11.378-11.378v-68.267c0-6.283-5.095-11.378-11.378-11.378s-11.378 5.095-11.378 11.378v68.267c0 6.283 5.095 11.378 11.378 11.378zM773.688 709.688v-45.511c0-6.283-5.095-11.378-11.378-11.378s-11.378 5.095-11.378 11.378v45.511c0 6.283 5.095 11.378 11.378 11.378s11.378-5.095 11.378-11.378zM773.688 300.090v-45.511c0-6.283-5.095-11.378-11.378-11.378s-11.378 5.095-11.378 11.378v45.511c0 6.283 5.095 11.378 11.378 11.378s11.378-5.095 11.378-11.378zM625.777 721.067c6.283 0 11.378-5.095 11.378-11.378v-45.511c0-6.283-5.095-11.378-11.378-11.378s-11.378 5.095-11.378 11.378v45.511c0 6.283 5.095 11.378 11.378 11.378zM625.777 311.469c6.283 0 11.378-5.095 11.378-11.378v-45.511c0-6.283-5.095-11.378-11.378-11.378s-11.378 5.095-11.378 11.378v45.511c0 6.283 5.095 11.378 11.378 11.378zM542.038 149.542c4.827-4.023 5.479-11.198 1.456-16.025l-56.888-68.267c-2.162-2.594-5.363-4.094-8.74-4.094h-102.399c-6.283 0-11.378 5.092-11.378 11.378v68.267c0 6.283 5.095 11.378 11.378 11.378s11.378-5.095 11.378-11.378v-56.888h85.693l53.477 64.173c4.023 4.827 11.198 5.479 16.025 1.456zM846.049 149.542c-4.827-4.023-5.479-11.198-1.456-16.025l56.888-68.267c2.162-2.594 5.363-4.094 8.74-4.094h102.399c6.283 0 11.378 5.092 11.378 11.378v68.267c0 6.283-5.095 11.378-11.378 11.378s-11.378-5.095-11.378-11.378v-56.888h-85.693l-53.477 64.173c-4.023 4.827-11.198 5.479-16.025 1.456zM364.089 823.466c0 6.284 5.095 11.378 11.378 11.378h637.155c6.283 0 11.378-5.094 11.378-11.378v-227.555c0-6.283-5.095-11.378-11.378-11.378h-637.155c-6.283 0-11.378 5.095-11.378 11.378v227.555zM386.845 812.089v-204.8h295.821v204.8h-295.821zM705.422 812.089v-204.8h295.821v204.8h-295.821zM0 823.466c0 6.284 5.094 11.378 11.378 11.378h295.821c6.283 0 11.378-5.094 11.378-11.378v-750.932c0-6.283-5.095-11.378-11.378-11.378h-295.821c-6.284 0-11.378 5.095-11.378 11.378v750.932zM22.757 812.089v-728.176h273.066v728.176h-273.066z" />
<glyph unicode="&#xe911;" glyph-name="favourite-bg" d="M85.334 960h853.333v-1024l-426.667 256-426.667-256v1024z" />
<glyph unicode="&#xe912;" glyph-name="hallways" horiz-adv-x="1008" d="M952.874 284.204h-655.198v25.2h655.198c34.794 0 62.999-28.206 62.999-62.999v-226.799c0-6.958-5.642-12.6-12.6-12.6h-75.6c-4.213 0-8.147 2.107-10.484 5.61l-46.66 69.99h-440.111l-46.66-69.99c-2.337-3.502-6.27-5.61-10.484-5.61h-100.799c-6.958 0-12.6 5.642-12.6 12.6s5.642 12.6 12.6 12.6h94.057l33.6 50.4h-102.456v25.2h579.401c0.124 0.002 0.247 0.002 0.367 0h113.229v100.799h-692.998v25.2h692.998v12.6c0 20.877-16.923 37.8-37.8 37.8zM900.819 82.604l33.6-50.4h56.257v50.4h-89.855zM11.567 885.311c2.363 2.363 5.568 3.69 8.909 3.69h982.797c6.958 0 12.6-5.641 12.6-12.6v-100.805c0-6.958-5.642-12.6-12.6-12.6h-692.998v-743.397c0-6.958-5.642-12.6-12.6-12.6h-277.2c-6.959 0-12.6 5.642-12.6 12.6v856.803c0 3.342 1.328 6.546 3.69 8.909zM310.276 788.197h680.398v75.605h-680.398v-75.605zM285.077 863.801h-251.999v-831.602h251.999v831.602zM222.076 523.602c6.958 0 12.6-5.642 12.6-12.6v-75.6c0-6.958-5.642-12.6-12.6-12.6s-12.6 5.642-12.6 12.6v75.6c0 6.958 5.642 12.6 12.6 12.6zM385.876 649.602c0 27.836 22.564 50.4 50.4 50.4s50.4-22.564 50.4-50.4v-37.8c0-27.836-22.564-50.4-50.4-50.4s-50.4 22.564-50.4 50.4v37.8zM436.276 674.802c-13.917 0-25.2-11.282-25.2-25.2v-37.8c0-13.917 11.282-25.2 25.2-25.2s25.2 11.282 25.2 25.2v37.8c0 13.917-11.282 25.2-25.2 25.2zM562.275 649.602c0 27.836 22.564 50.4 50.4 50.4s50.4-22.564 50.4-50.4v-37.8c0-27.836-22.564-50.4-50.4-50.4s-50.4 22.564-50.4 50.4v37.8zM612.675 674.802c-13.917 0-25.2-11.282-25.2-25.2v-37.8c0-13.917 11.282-25.2 25.2-25.2s25.2 11.282 25.2 25.2v37.8c0 13.917-11.282 25.2-25.2 25.2zM738.676 649.602c0 27.836 22.564 50.4 50.4 50.4s50.4-22.564 50.4-50.4v-37.8c0-27.836-22.564-50.4-50.4-50.4s-50.4 22.564-50.4 50.4v37.8zM789.075 674.802c-13.917 0-25.2-11.282-25.2-25.2v-37.8c0-13.917 11.282-25.2 25.2-25.2s25.2 11.282 25.2 25.2v37.8c0 13.917-11.282 25.2-25.2 25.2zM915.075 649.602c0 27.836 22.564 50.4 50.4 50.4s50.4-22.564 50.4-50.4v-37.8c0-27.836-22.564-50.4-50.4-50.4s-50.4 22.564-50.4 50.4v37.8zM965.475 674.802c-13.917 0-25.2-11.282-25.2-25.2v-37.8c0-13.917 11.282-25.2 25.2-25.2s25.2 11.282 25.2 25.2v37.8c0 13.917-11.282 25.2-25.2 25.2z" />
<glyph unicode="&#xe913;" glyph-name="home-office" d="M80.431-41.244l10.623 148.721 22.698-1.62-11.378-159.288c-0.426-5.955-5.379-10.567-11.349-10.567h-68.267c-6.284 0-11.378 5.095-11.378 11.378v159.288h22.755v-147.911h46.294zM11.381 607.289c0 6.283 5.094 11.378 11.378 11.378h964.831c13.824 0 25.031-11.207 25.031-25.031 0-36.448-29.546-65.996-65.994-65.996h-923.869c-6.284 0-11.378 5.095-11.378 11.378v68.271zM34.137 595.912v-45.516h912.491c23.879 0 43.237 19.358 43.237 43.24 0 1.257-1.020 2.275-2.275 2.275h-953.453zM875.049-41.244l-55.899 581.357-22.651-2.18 56.888-591.645c0.562-5.835 5.463-10.288 11.326-10.288h68.267c3.131 0 6.124 1.291 8.274 3.568 2.15 2.275 3.265 5.339 3.086 8.465l-34.133 591.645-22.719-1.311 33.439-579.612h-45.877zM11.381 539.023c0 6.283 5.094 11.378 11.378 11.378h477.866c6.283 0 11.378-5.095 11.378-11.378v-432.355c0-6.283-5.095-11.378-11.378-11.378h-477.866c-6.284 0-11.378 5.095-11.378 11.378v432.355zM34.137 527.646v-113.778h455.111v113.778h-455.111zM489.248 391.113h-295.822v-273.066h295.822v273.066zM170.67 118.046v273.066h-136.533v-273.066h136.533zM193.425 470.756c0 6.283 5.095 11.378 11.378 11.378h113.778c6.283 0 11.378-5.095 11.378-11.378s-5.095-11.378-11.378-11.378h-113.778c-6.283 0-11.378 5.095-11.378 11.378zM113.782 300.090c-6.284 0-11.378-5.095-11.378-11.378v-68.267c0-6.283 5.094-11.378 11.378-11.378s11.378 5.095 11.378 11.378v68.267c0 6.283-5.094 11.378-11.378 11.378zM250.315 300.090c-6.283 0-11.378-5.095-11.378-11.378v-68.267c0-6.283 5.095-11.378 11.378-11.378s11.378 5.095 11.378 11.378v68.267c0 6.283-5.095 11.378-11.378 11.378zM375.47 948.623c0 6.284 5.095 11.378 11.378 11.378h409.6c6.283 0 11.378-5.094 11.378-11.378v-250.311c0-6.283-5.095-11.378-11.378-11.378h-193.422v-79.645h-22.755v79.645h-193.422c-6.283 0-11.378 5.095-11.378 11.378v250.311zM398.225 937.246v-227.555h386.844v227.555h-386.844z" />
<glyph unicode="&#xe914;" glyph-name="insta" d="M0.001 624c0 185.568 150.432 336 336 336h352c185.569 0 335.999-150.432 335.999-336v-351.998c0-185.569-150.43-336.002-335.999-336.002h-352c-185.568 0-336 150.434-336 336.002v351.998zM336 864c-132.549 0-240-107.451-240-240v-351.998c0-132.549 107.451-240.002 240-240.002h352c132.549 0 239.998 107.453 239.998 240.002v351.998c0 132.549-107.449 240-239.998 240h-352zM256.001 448.001c0 141.384 114.613 255.998 256 255.998 141.383 0 255.999-114.615 255.999-255.998 0-141.387-114.615-256.002-255.999-256.002-141.387 0-256 114.615-256 256.002zM512.001 607.999c-88.368 0-160-71.635-160-159.998 0-88.368 71.633-160.002 160-160.002 88.363 0 159.999 71.635 159.999 160.002 0 88.363-71.635 159.998-159.999 159.998zM671.806 735.99c0 35.346 28.651 64 63.999 64 35.344 0 63.999-28.653 63.999-64s-28.655-64-63.999-64c-35.347 0-63.999 28.653-63.999 64z" />
<glyph unicode="&#xe915;" glyph-name="kitchens" d="M0 815.304c0 6.147 4.984 11.131 11.131 11.131h333.913c6.146 0 11.131-4.984 11.131-11.131v-734.609c0-6.146-4.985-11.131-11.131-11.131h-333.913c-6.147 0-11.131 4.985-11.131 11.131v734.609zM22.26 804.174v-445.218h311.653v445.218h-311.653zM333.913 336.695h-311.653v-244.87h311.653v244.87zM189.217 436.869c0 6.146 4.985 11.131 11.131 11.131h77.913c6.146 0 11.131-4.985 11.131-11.131s-4.985-11.131-11.131-11.131h-77.913c-6.146 0-11.131 4.985-11.131 11.131zM345.042 303.304c0 6.146 4.985 11.131 11.131 11.131h222.608c6.146 0 11.131-4.985 11.131-11.131s-4.985-11.131-11.131-11.131h-222.608c-6.146 0-11.131 4.985-11.131 11.131zM345.042 192c0 6.146 4.985 11.131 11.131 11.131h222.608c6.146 0 11.131-4.985 11.131-11.131s-4.985-11.131-11.131-11.131h-222.608c-6.146 0-11.131 4.985-11.131 11.131zM333.913 414.609c0 6.146 4.985 11.131 11.131 11.131h244.87c6.146 0 11.131-4.985 11.131-11.131v-333.913c0-6.146-4.985-11.131-11.131-11.131h-244.87c-6.146 0-11.131 4.985-11.131 11.131v333.913zM356.173 403.478v-311.653h222.608v311.653h-222.608zM979.477 414.609c0 6.146-4.985 11.131-11.131 11.131h-378.435c-6.146 0-11.131-4.985-11.131-11.131v-333.913c0-6.146 4.985-11.131 11.131-11.131h378.435c6.146 0 11.131 4.985 11.131 11.131v333.913zM957.217 403.478v-311.653h-356.174v311.653h356.174zM912.695 281.043c0 6.146-4.985 11.131-11.131 11.131h-244.87c-6.146 0-11.131-4.985-11.131-11.131v-133.565c0-6.146 4.985-11.131 11.131-11.131h244.87c6.146 0 11.131 4.985 11.131 11.131v133.565zM890.434 269.913v-111.305h-222.608v111.305h222.608zM912.695 370.087c0 6.146-4.985 11.131-11.131 11.131h-244.87c-6.146 0-11.131-4.985-11.131-11.131v-44.522c0-6.146 4.985-11.131 11.131-11.131h244.87c6.146 0 11.131 4.985 11.131 11.131v44.522zM890.434 358.957v-22.261h-222.608v22.261h222.608zM422.956 370.087c0 6.146 4.985 11.131 11.131 11.131h66.783c6.146 0 11.131-4.985 11.131-11.131s-4.985-11.131-11.131-11.131h-66.783c-6.146 0-11.131 4.985-11.131 11.131zM734.608 192c0 6.146 4.985 11.131 11.131 11.131h66.783c6.146 0 11.131-4.985 11.131-11.131s-4.985-11.131-11.131-11.131h-66.783c-6.146 0-11.131 4.985-11.131 11.131zM422.956 258.783c0 6.146 4.985 11.131 11.131 11.131h66.783c6.146 0 11.131-4.985 11.131-11.131s-4.985-11.131-11.131-11.131h-66.783c-6.146 0-11.131 4.985-11.131 11.131zM422.956 147.478c0 6.146 4.985 11.131 11.131 11.131h66.783c6.146 0 11.131-4.985 11.131-11.131s-4.985-11.131-11.131-11.131h-66.783c-6.146 0-11.131 4.985-11.131 11.131zM535.578 609.705c1.937-3.62 5.708-5.879 9.813-5.879h467.478c4.105 0 7.876 2.259 9.813 5.879 1.937 3.618 1.725 8.010-0.552 11.426l-44.522 66.783c-2.064 3.094-5.539 4.955-9.261 4.955h-79.614l-17.611 105.664c-2.685 16.101-16.615 27.902-32.937 27.902h-118.111c-16.322 0-30.253-11.801-32.937-27.902l-17.611-105.664h-79.614c-3.722 0-7.197-1.861-9.261-4.955l-44.522-66.783c-2.277-3.417-2.489-7.809-0.552-11.426zM692.094 692.87l17 102.004c0.895 5.367 5.539 9.301 10.979 9.301h118.111c5.441 0 10.084-3.934 10.979-9.301l17-102.004h-174.071zM566.189 626.087l29.681 44.522h366.521l29.681-44.522h-425.882z" />
<glyph unicode="&#xe920;" glyph-name="list-marker-sq" d="M0 960h1024v-1024h-1024v1024z" />
<glyph unicode="&#xe922;" glyph-name="mebel-assembling" d="M316.201 704.717c2.758 2.758 7.23 2.758 9.989 0l445.972-445.972c2.758-2.758 2.758-7.23 0-9.989s-7.229-2.757-9.988 0l-445.974 445.974c-2.757 2.758-2.757 7.229 0 9.988zM240.354 628.871c2.758 2.757 7.229 2.757 9.988 0l138.257-138.257c2.758-2.758 2.758-7.23 0-9.988s-7.229-2.758-9.988 0l-138.257 138.256c-2.758 2.758-2.758 7.23 0 9.989zM541.046 328.177c2.758 2.758 7.23 2.758 9.988 0l145.282-145.281c2.757-2.758 2.757-7.229 0-9.988s-7.23-2.758-9.988 0l-145.282 145.281c-2.757 2.758-2.757 7.23 0 9.988zM842.017 751.521c2.758-2.758 2.758-7.23 0-9.988l-279.259-279.261c-2.758-2.757-7.229-2.757-9.988 0s-2.758 7.23 0 9.988l279.259 279.261c2.758 2.757 7.23 2.757 9.988 0zM811.939 781.601c2.758-2.758 2.758-7.23 0-9.988l-279.259-279.261c-2.758-2.757-7.229-2.757-9.988 0s-2.758 7.23 0 9.988l279.259 279.261c2.758 2.757 7.23 2.757 9.988 0zM129.46 943.424c56.624 14.285 119.148-0.714 163.466-45.030 67.012-67.012 67.012-175.657 0-242.669-67.010-67.012-175.657-67.012-242.667 0-44.279 44.278-59.29 106.73-45.070 163.316 0.62 2.467 2.52 4.41 4.973 5.086s5.080-0.019 6.877-1.82l95.946-96.131 86.44 23.051 23.050 86.435-96.27 95.91c-1.802 1.796-2.499 4.422-1.825 6.874s2.615 4.356 5.083 4.977zM145.436 932.352l89.896-89.56c1.789-1.782 2.491-4.385 1.841-6.824l-25.154-94.33c-0.653-2.443-2.561-4.352-5.004-5.004l-94.33-25.153c-2.438-0.652-5.038 0.049-6.819 1.835l-89.589 89.76c-8.077-48.476 6.588-99.981 43.971-137.362 61.494-61.495 161.197-61.495 222.691 0 61.495 61.495 61.495 161.197 0 222.692-37.418 37.418-88.985 52.075-137.502 43.946zM841.062 265.061c-86.966 0-157.467-70.5-157.467-157.467s70.5-157.467 157.467-157.467c86.966 0 157.467 70.5 157.467 157.467s-70.5 157.467-157.467 157.467zM669.471 107.595c0 94.768 76.825 171.592 171.592 171.592s171.592-76.825 171.592-171.592c0-94.768-76.825-171.592-171.592-171.592s-171.592 76.825-171.592 171.592zM763.637 152.438v-89.684l77.426-44.826 77.426 44.826v89.684l-77.426 44.825-77.426-44.825zM837.524 211.535c2.188 1.267 4.888 1.267 7.077 0l84.489-48.914c2.181-1.263 3.524-3.593 3.524-6.111v-97.829c0-2.52-1.343-4.849-3.524-6.111l-84.489-48.916c-2.189-1.267-4.889-1.267-7.077 0l-84.489 48.916c-2.181 1.263-3.524 3.593-3.524 6.111v97.829c0 2.52 1.343 4.849 3.524 6.111l84.489 48.914zM292.649 291.553c-2.758 2.758-7.229 2.758-9.988 0l-131.86-131.86c-2.758-2.757-2.758-7.229 0-9.988 2.757-2.758 7.229-2.758 9.988 0l131.86 131.86c2.758 2.758 2.758 7.23 0 9.988zM347.785 236.42c-2.758 2.757-7.23 2.757-9.988 0l-131.86-131.861c-2.758-2.757-2.758-7.229 0-9.988 2.757-2.757 7.229-2.757 9.988 0l131.86 131.86c2.758 2.758 2.758 7.23 0 9.989zM959.356 957.929c-2.361 2.361-6.056 2.747-8.854 0.919l-96.287-62.839c-11.334-7.397-23.796-15.53-34.228-25.268-10.525-9.823-19.418-21.661-23.187-36.685-6.898-27.485 0.397-57.831 21.913-79.349 21.518-21.515 51.863-28.811 79.349-21.913 15.024 3.77 26.861 12.663 36.685 23.187 9.737 10.433 17.87 22.895 25.266 34.228l62.84 96.287c1.826 2.798 1.442 6.492-0.92 8.854l-62.574 62.575zM953.422 943.887l54.468-54.468-59.663-91.421c-7.534-11.544-15.029-22.972-23.809-32.378-8.711-9.335-18.303-16.239-29.796-19.125-22.867-5.738-48.059 0.339-65.922 18.202s-23.94 43.053-18.201 65.921c2.884 11.493 9.79 21.085 19.125 29.796 9.406 8.779 20.835 16.275 32.377 23.809l91.422 59.663zM428.454 583.753c-31.617-90.298-86.666-170.568-159.51-232.592l-192.903-164.252c-0.144-0.122-0.282-0.25-0.416-0.383-46.578-46.578-46.271-122.29 0.544-169.106 46.814-46.814 122.526-47.123 169.106-0.544 0.132 0.132 0.26 0.271 0.383 0.416l164.252 192.903c62.023 72.844 142.295 127.892 232.591 159.509l-4.668 13.331c-92.659-32.444-175.032-88.934-238.679-163.683l-164.066-192.684c-41.015-40.802-107.635-40.556-148.932 0.74s-41.542 107.917-0.74 148.932l192.684 164.067c74.751 63.647 131.24 146.020 163.686 238.68l-13.333 4.667z" />
<glyph unicode="&#xe923;" glyph-name="mebel-deliver" d="M330.91 247.732h195.204c89.904 0 165.795 66.819 177.18 156l43.655 341.966h-671.083l-63.57-497.966h129.169v-10.826h-141.465l66.334 519.616h692.91l-45.213-354.163c-12.075-94.584-92.567-165.453-187.918-165.453h-195.204v10.826zM330.905 215.256h357.236v-10.826h-357.236v10.826zM91.77 204.431l6.463 38.778 10.679-1.78-4.363-26.174h42.326v-10.826h-55.105zM965.015 215.256h-92.844v-10.826h102.013l7.216 43.302h-38.865v-10.826h26.087l-3.608-21.65zM71.096 420.937h433.014v-10.826h-433.014v10.826zM709.791 420.937h151.554v-10.826h-151.554v10.826zM11.557 334.335h227.332v-10.826h-227.332v10.826zM780.156 334.335h151.554v-10.826h-151.554v10.826zM92.747 583.317h443.839v-10.826h-443.839v10.826zM1023.333 432.268c9.205 110.449-77.957 205.176-188.788 205.176h-95.884v-10.826h95.884c104.498 0 186.678-89.313 178.001-193.453l-15.454-185.435h-120.412v-10.826h130.373l16.281 195.361zM500.503 236.907h189.444v10.826h-189.444v-10.826zM238.889 150.304c-47.83 0-86.602 38.773-86.602 86.602s38.773 86.602 86.602 86.602c47.83 0 86.602-38.773 86.602-86.602s-38.773-86.602-86.602-86.602zM238.889 139.479c53.809 0 97.428 43.619 97.428 97.428s-43.619 97.428-97.428 97.428c-53.809 0-97.428-43.619-97.428-97.428s43.619-97.428 97.428-97.428zM238.889 215.256c-11.957 0-21.65 9.693-21.65 21.65s9.693 21.65 21.65 21.65c11.957 0 21.65-9.693 21.65-21.65s-9.693-21.65-21.65-21.65zM238.889 204.431c17.937 0 32.476 14.539 32.476 32.476s-14.539 32.476-32.476 32.476c-17.937 0-32.476-14.539-32.476-32.476s14.539-32.476 32.476-32.476zM780.156 215.256c-11.957 0-21.65 9.693-21.65 21.65s9.693 21.65 21.65 21.65c11.957 0 21.65-9.693 21.65-21.65s-9.693-21.65-21.65-21.65zM780.156 204.431c17.937 0 32.476 14.539 32.476 32.476s-14.539 32.476-32.476 32.476c-17.937 0-32.476-14.539-32.476-32.476s14.539-32.476 32.476-32.476zM780.156 150.304c-47.83 0-86.602 38.773-86.602 86.602s38.773 86.602 86.602 86.602c47.83 0 86.602-38.773 86.602-86.602s-38.773-86.602-86.602-86.602zM780.156 139.479c53.809 0 97.428 43.619 97.428 97.428s-43.619 97.428-97.428 97.428c-53.809 0-97.428-43.619-97.428-97.428s43.619-97.428 97.428-97.428z" />
<glyph unicode="&#xe924;" glyph-name="order-mebel-96" d="M316.987 643.009c1.231 1.232 2.9 1.923 4.641 1.923l695.808-0.006c3.625 0 6.564-2.939 6.564-6.564l-0.016-695.787c0-3.625-2.938-6.564-6.564-6.564h-695.793c-1.741 0-3.411 0.692-4.641 1.923-1.232 1.232-1.923 2.9-1.923 4.641v695.794c0 1.741 0.692 3.411 1.923 4.641zM328.205 421.762l-0.014-472.624h682.667l0.014 472.624h-682.667zM1010.872 434.89v196.908l-682.68 0.006 0.013-196.914h682.667zM1017.419 959.989c3.626 0 6.564-2.939 6.564-6.564v-210.042c0-3.625-2.938-6.564-6.564-6.564s-6.564 2.939-6.564 6.564v98.458h-682.666v-98.457c0-3.626-2.938-6.564-6.564-6.564s-6.564 2.938-6.564 6.564v196.914c0 3.625 2.939 6.564 6.564 6.564s6.564-2.939 6.564-6.564v-85.33h682.666v98.456c0 3.625 2.939 6.564 6.564 6.564zM0-57.402c0.001 3.626 2.94 6.564 6.566 6.563l98.456-0.022v682.662h-98.457c-3.625 0-6.564 2.938-6.564 6.564s2.939 6.564 6.564 6.564h210.042c3.626 0 6.564-2.939 6.564-6.564s-2.938-6.564-6.564-6.564h-98.457v-682.662l98.456 0.022c3.625 0.001 6.565-2.937 6.565-6.563s-2.937-6.564-6.563-6.565h-210.045c-3.625 0.001-6.563 2.94-6.563 6.565z" />
<glyph unicode="&#xe925;" glyph-name="pen" d="M862.791 808.265c3.662-2.614 6.857-5.817 9.475-9.479l144.141-201.795c11.578-16.217 9.744-38.432-4.346-52.524l-542.786-542.782c-6.318-6.319-14.538-10.388-23.395-11.578l-399.679-53.741c-12.601-1.696-25.271 2.585-34.261 11.571-8.991 8.993-13.271 21.665-11.577 34.262l53.747 399.683c1.19 8.856 5.258 17.076 11.577 23.394l542.782 542.782c14.092 14.092 36.308 15.93 52.525 4.347l201.797-144.139zM641.703 865.981l-484.33-484.33 162.633-116.166c3.662-2.614 6.864-5.817 9.479-9.479l116.166-162.63 484.328 484.328-120.112 168.163-168.162 120.115zM367.93 61.9l-100.846 141.182-141.186 100.846-37.604-279.634 279.636 37.605z" />
<glyph unicode="&#xe926;" glyph-name="place-sizes" d="M5.332 330.666c2.946 0 5.333-2.388 5.333-5.333v-69.333l442.667-0.003c2.945 0 5.333-2.387 5.333-5.333s-2.388-5.333-5.333-5.333l-41.333 0.001v-10.667c0-2.945-2.387-5.333-5.333-5.333s-5.333 2.387-5.333 5.333v10.667h-46.667v-26.666c0.001-2.946-2.387-5.333-5.332-5.333s-5.333 2.387-5.334 5.332v26.667h-46.667v-10.666c0-2.946-2.387-5.333-5.333-5.333s-5.333 2.387-5.333 5.332v10.667l-46.667 0.001 0.001-26.667c0-2.945-2.387-5.333-5.333-5.333-2.945 0-5.333 2.387-5.333 5.333l-0.001 26.667h-46.667l0.001-10.667c0-2.945-2.388-5.333-5.333-5.333-2.946 0-5.333 2.387-5.333 5.333l-0.001 10.667h-46.667l0.002-26.666c0-2.946-2.388-5.333-5.333-5.333-2.946-0.001-5.333 2.387-5.333 5.332l-0.002 26.667-46.666 0.001 0.001-10.667c0-2.945-2.388-5.333-5.333-5.333s-5.334 2.387-5.334 5.332l-0.001 10.668h-46.667l0.008-117.333h453.325c2.945 0 5.333-2.388 5.333-5.333s-2.388-5.333-5.333-5.333h-458.658c-2.945 0-5.333 2.387-5.333 5.333l-0.009 202.667c0 2.945 2.388 5.333 5.333 5.333zM741.332 768c-150.109 0-272-130.831-272-272 0-67.257 19.374-123.831 33.355-155.879 7.020-16.092-4.403-36.121-22.73-36.121-6.443 0-11.882-4.785-12.704-11.174l-21.191-164.826h567.271v168.094c0 7.696-2.092 15.249-6.052 21.849-6.586 10.978-8.988 23.964-6.763 36.571l6.695 37.942c4.071 23.075 6.119 46.461 6.119 69.892v33.652c0 150.222-121.778 272-272 272zM458.666 496c0 146.831 126.442 282.667 282.667 282.667 156.113 0 282.667-126.555 282.667-282.667v-33.652c0-24.053-2.102-48.059-6.282-71.745l-6.695-37.942c-1.779-10.077 0.141-20.457 5.405-29.23 4.955-8.258 7.572-17.707 7.572-27.337v-173.427c0-2.945-2.388-5.333-5.333-5.333h-578.668c-1.533 0-2.992 0.659-4.004 1.811-1.012 1.151-1.481 2.682-1.285 4.203l21.965 170.838c1.506 11.711 11.476 20.481 23.283 20.481 9.877 0 17.21 11.431 12.953 21.189-14.329 32.847-34.244 90.923-34.244 160.144zM741.332 618.666c-67.599 0-122.667-56.492-122.667-126.514v-134.819c0-20.619 16.715-37.333 37.333-37.333h170.667c20.619 0 37.333 16.715 37.333 37.333v134.819c0 70.022-55.068 126.514-122.667 126.514zM607.999 492.152c0 75.613 59.548 137.181 133.333 137.181s133.333-61.568 133.333-137.181v-134.819c0-26.51-21.49-48-48-48h-170.667c-26.51 0-48 21.49-48 48v134.819zM496.114 685.563c-10.534-11.806-9.361-30.403 3.091-41.515l6.958-6.208c2.197-1.962 2.389-5.333 0.429-7.531-1.962-2.197-5.333-2.389-7.531-0.429l-6.957 6.208c-16.624 14.834-18.603 40.154-3.949 56.576s40.034 17.328 56.658 2.494c2.197-1.961 2.389-5.332 0.428-7.53s-5.332-2.389-7.53-0.429c-12.452 11.111-31.062 10.169-41.598-1.637zM655.999 266.666c-20.619 0-37.333-16.715-37.333-37.333s16.715-37.333 37.333-37.333h170.667c20.619 0 37.333 16.715 37.333 37.333s-16.715 37.333-37.333 37.333h-170.667zM607.999 229.333c0 26.51 21.49 48 48 48h170.667c26.51 0 48-21.49 48-48s-21.49-48-48-48h-170.667c-26.51 0-48 21.49-48 48zM698.666 565.333h85.333c2.945 0 5.333-2.388 5.333-5.333v-170.667c0-1.414-0.562-2.771-1.562-3.772-1.001-0.999-2.357-1.562-3.772-1.562h-85.333c-2.945 0-5.333 2.388-5.333 5.333v170.667c0 2.945 2.388 5.333 5.333 5.333zM703.999 554.666v-160h74.667v160h-74.667zM698.666 565.333h85.333c1.414 0 2.771-0.562 3.772-1.562 0.999-1.001 1.562-2.357 1.562-3.772v-64c0-2.945-2.388-5.333-5.333-5.333h-85.333c-1.414 0-2.771 0.562-3.772 1.562-0.999 1.001-1.562 2.357-1.562 3.772v64c0 2.945 2.388 5.333 5.333 5.333zM703.999 554.666v-53.333h74.667v53.333h-74.667z" />
<glyph unicode="&#xe927;" glyph-name="3D" d="M701.87 957.599c5.755 3.389 12.944 3.177 18.487-0.547l295.963-198.804c4.801-3.224 7.678-8.626 7.678-14.407v-336.439c0-6.147-3.252-11.833-8.546-14.954l-328.849-193.706c-5.755-3.392-12.944-3.176-18.487 0.545l-295.963 198.805c-4.801 3.225-7.678 8.626-7.678 14.409v336.437c0 6.146 3.252 11.834 8.546 14.954l328.849 193.706zM399.186 716.371v-294.623l261.252-175.486v294.62l-261.252 175.489zM695.149 244.062l294.138 173.26v296.151l-294.138-173.26v-296.15zM678.401 570.634l295.683 174.17-264.011 177.34-295.683-174.17 264.011-177.339zM937.219 57.493c0-9.584-7.772-17.356-17.356-17.356h-798.371c-9.586 0-17.356 7.772-17.356 17.356l-0.001 781.016c0 9.586 7.77 17.356 17.356 17.356s17.356-7.77 17.356-17.356l0.001-749.112 268.266 173.584c8.046 5.207 18.793 2.905 24-5.145 5.207-8.046 2.905-18.793-5.145-24l-245.707-158.987h739.6c9.584 0 17.356-7.772 17.356-17.356zM237.9 739.456c-6.778-6.778-17.767-6.778-24.545 0l-91.863 91.863-91.863-91.863c-6.778-6.778-17.767-6.778-24.545 0s-6.778 17.767 0 24.545l104.135 104.135c6.778 6.778 17.767 6.778 24.545 0l104.135-104.135c6.778-6.778 6.778-17.767 0-24.545zM820.809-58.917c-6.776 6.779-6.776 17.769 0 24.548l91.865 91.861-91.865 91.861c-6.776 6.779-6.776 17.769 0 24.548 6.779 6.776 17.769 6.776 24.548 0l104.135-104.135c6.776-6.779 6.776-17.769 0-24.548l-104.135-104.135c-6.779-6.776-17.769-6.776-24.548 0z" />
<glyph unicode="&#xe928;" glyph-name="about" d="M1024 763.077v-630.154h-1024v315.077c0 174.012 141.065 315.077 315.077 315.077h708.923zM227.009 526.769c21.6 24.134 52.974 39.336 87.9 39.385 0.056 0 0.112 0 0.168 0h669.538v157.538h-669.538c-152.261 0-275.692-123.432-275.692-275.692v-275.692h945.231v157.538h-787.692v39.385h787.692v157.538h-757.607z" />
<glyph unicode="&#xe929;" glyph-name="info" d="M512 694.518c-31.418 0-56.889-25.47-56.889-56.889s25.471-56.889 56.889-56.889c31.418 0 56.889 25.47 56.889 56.889s-25.471 56.889-56.889 56.889zM417.185 637.63c0 52.365 42.45 94.815 94.815 94.815s94.815-42.45 94.815-94.815c0-52.364-42.45-94.815-94.815-94.815s-94.815 42.45-94.815 94.815zM585.644 255.329c12.189-5.127 26.742-4.999 40.141 3.042l-8.621-31.611c-1.16-4.259-2.549-8.363-4.142-12.307-27.903-69.139-119.163-89.638-173.841-34.961-25.536 25.536-36.382 62.274-28.816 97.583l44.752 208.851h151.704l-47.362-177.607c-6.341-23.788 6.982-44.912 26.184-52.991zM573.243 219.393c-36.568 14.249-62.37 53.92-50.426 98.698l34.641 129.908h-71.68l-38.328-178.873c-4.873-22.729 2.112-46.379 18.549-62.816 32.579-32.574 85.325-23.699 107.243 13.084zM360.296 485.926h227.556v-37.926h-227.556v37.926zM512 922.075c-261.824 0-474.075-212.251-474.075-474.075 0-261.826 212.251-474.075 474.075-474.075 261.826 0 474.075 212.248 474.075 474.075 0 261.824-212.248 474.075-474.075 474.075zM0 448c0 282.77 229.231 512 512 512s512-229.231 512-512c0-282.768-229.232-512-512-512-282.77 0-512 229.232-512 512z" />
<glyph unicode="&#xe92a;" glyph-name="main" d="M501.117 956.408l-493.715-365.714c-4.656-3.449-7.402-8.901-7.402-14.694v-621.713c0-10.097 8.187-18.286 18.286-18.286h987.428c10.097 0 18.286 8.188 18.286 18.286v621.713c0 5.793-2.747 11.246-7.402 14.694l-493.714 365.714c-6.466 4.789-15.301 4.789-21.767 0zM36.572 557.714h950.856v-585.142h-950.856v585.142zM950.31 594.286h-876.616l438.308 324.673 438.309-324.673zM530.287 338.286v237.714h36.571v-603.428h-36.571v329.143h-274.286v-329.143h-36.571v347.429c0 10.097 8.187 18.286 18.286 18.286h292.571z" />
<glyph unicode="&#xe92b;" glyph-name="opt-clients" d="M976.857 524.927l-137.686-137.686-341.916 341.914 137.689 137.687 341.912-341.916zM634.945 913.985l-184.832-184.831 389.058-389.057 184.829 184.829-389.055 389.059zM47.143 472.837l437.958-437.958c26.035-26.035 68.251-26.035 94.286 0l235.718 235.718c26.035 26.035 26.035 68.248 0 94.286l-437.958 437.957-330.006-330.005zM377.149 849.984l461.53-461.53c39.053-39.056 39.053-102.376 0-141.429l-235.718-235.718c-39.056-39.056-102.376-39.056-141.429 0l-461.531 461.53 377.148 377.147zM511.827 190.308l128.578-128.578-23.571-23.571-128.578 128.578 23.571 23.571zM597.576 276.024l128.578-128.578-23.571-23.571-128.578 128.578 23.571 23.571zM683.258 361.739l128.578-128.581-23.571-23.571-128.578 128.581 23.571 23.571z" />
<glyph unicode="&#xe92c;" glyph-name="order-mebel" d="M279.272 662.109c0 10.283 8.336 18.618 18.618 18.618h707.49c10.281 0 18.618-8.336 18.618-18.618v-707.49c0-10.281-8.337-18.618-18.618-18.618h-707.49c-10.283 0-18.618 8.337-18.618 18.618v707.49zM316.509 643.491v-223.418h670.254v223.418h-670.254zM986.764 382.836h-670.254v-409.6h670.254v409.6zM297.891 959.999c10.283 0 18.618-8.336 18.618-18.618v-74.473h670.254v74.473c0 10.283 8.337 18.618 18.618 18.618s18.618-8.336 18.618-18.618v-186.182c0-10.283-8.337-18.618-18.618-18.618s-18.618 8.336-18.618 18.618v74.473h-670.254v-74.473c0-10.283-8.336-18.618-18.618-18.618s-18.618 8.336-18.618 18.618v186.182c0 10.283 8.336 18.618 18.618 18.618zM0.001-45.381c0 10.281 8.336 18.618 18.618 18.618h74.473v670.254h-74.473c-10.283 0-18.618 8.336-18.618 18.618s8.336 18.618 18.618 18.618h186.182c10.283 0 18.618-8.336 18.618-18.618s-8.336-18.618-18.618-18.618h-74.473v-670.254h74.473c10.283 0 18.618-8.337 18.618-18.618s-8.336-18.618-18.618-18.618h-186.182c-10.283 0-18.618 8.337-18.618 18.618z" />
<glyph unicode="&#xe92d;" glyph-name="serial-mebel" d="M18.963 941.037v-986.074c0-10.471 8.49-18.963 18.963-18.963h948.148c10.471 0 18.963 8.492 18.963 18.963v986.074c0 10.473-8.492 18.963-18.963 18.963h-948.148c-10.473 0-18.963-8.49-18.963-18.963zM284.444 922.074v-720.593h-227.556v720.593h227.556zM322.37 201.481v720.593h227.556v-720.593h-227.556zM549.926 163.556v-189.63h-493.037v189.63h493.037zM587.852-26.074v189.63h379.259v-189.63h-379.259zM967.111 201.481h-379.259v720.593h379.259v-720.593zM872.296 542.815c10.471 0 18.963-8.492 18.963-18.963v-113.778c0-10.471-8.492-18.963-18.963-18.963s-18.963 8.492-18.963 18.963v113.778c0 10.471 8.492 18.963 18.963 18.963z" />
<glyph unicode="&#xe92e;" glyph-name="tables-stools" d="M0.001 619.434c0 16.522 13.394 29.914 29.914 29.914h952.66c16.522 0 29.914-13.393 29.914-29.914 0-47.024-38.118-85.141-85.141-85.141h-842.207c-47.023 0-85.141 38.118-85.141 85.141zM29.915 626.338c-3.813 0-6.903-3.090-6.903-6.903 0-34.314 27.816-62.13 62.13-62.13h842.207c34.314 0 62.13 27.816 62.13 62.13 0 3.813-3.090 6.903-6.903 6.903h-952.66zM494.512-17.981l-11.281 564.005-23.007-0.461 11.506-575.28c0.124-6.264 5.24-11.275 11.504-11.275h69.034c6.264 0 11.379 5.011 11.504 11.275l11.506 575.28-23.007 0.461-11.281-564.005h-46.478zM71.29-17.976l124.575 566.247 22.473-4.942-126.561-575.28c-1.161-5.277-5.836-9.034-11.237-9.034h-69.034c-3.407 0-6.641 1.512-8.827 4.126s-3.1 6.063-2.497 9.419l103.551 575.28 22.647-4.077-101.113-561.737h46.023zM952.711-17.976l-124.576 566.247-22.473-4.942 126.561-575.28c1.16-5.277 5.833-9.034 11.236-9.034h69.034c3.407 0 6.641 1.512 8.827 4.126s3.1 6.063 2.497 9.419l-103.551 575.28-22.647-4.077 101.114-561.737h-46.023zM152.257 783.298c2.186 2.609 5.417 4.119 8.822 4.119h161.078c3.36 0 6.548-1.468 8.735-4.018s3.148-5.927 2.635-9.248l-18.349-118.579c-2.605-16.826-17.086-29.238-34.112-29.238h-76.065c-16.722 0-31.039 11.987-33.979 28.448l-21.269 119.106c-0.599 3.352 0.318 6.798 2.505 9.409zM174.821 764.405l18.853-105.577c0.98-5.488 5.752-9.482 11.326-9.482h76.065c5.675 0 10.503 4.138 11.37 9.746l16.298 105.315h-133.913zM321.566 929.119c2.012-6.029-1.247-12.544-7.277-14.553-30.519-10.174-45.442-30.074-53.128-53.128-7.941-23.827-8.038-50.702-8.038-74.024 0-6.355-5.153-11.506-11.506-11.506s-11.506 5.149-11.506 11.506v0.69c0 22.629-0.002 52.945 9.22 80.611 9.573 28.721 29.167 54.844 67.681 67.681 6.029 2.010 12.544-1.249 14.552-7.277zM319.53 864.388c-6.975 1.507-14.267-0.784-19.069-5.971l-24.615-26.586 36.176-6.512c7.661-1.38 15.423 1.837 19.863 8.231 8.022 11.552 1.641 27.814-12.355 30.838zM283.577 874.050c10.373 11.205 25.952 16.040 40.813 12.831 29.79-6.435 43.924-41.213 26.394-66.456-9.575-13.791-26.316-20.727-42.84-17.754l-55.885 10.060c-9.366 1.686-13.171 13.055-6.706 20.038l38.224 41.28zM203.109 888.094c5.543-2.082 9.679-6.796 11.023-12.562l6.984-29.979-32.129 13.26c-5.591 2.307-9.43 7.538-9.955 13.562-1.034 11.868 10.67 20.753 21.824 16.566l2.253-0.846zM236.545 880.752c-3.090 13.26-12.601 24.099-25.347 28.885l-2.253 0.846c-27.004 10.138-55.341-11.371-52.837-40.106 1.272-14.587 10.565-27.249 24.099-32.835l51.824-21.389c9.057-3.738 18.55 4.325 16.326 13.867l-11.814 50.732z" />
<glyph unicode="&#xe92f;" glyph-name="vk" d="M1018.568 179.691c-1.241 3.044-2.397 5.569-3.47 7.594-17.767 36.452-51.717 81.199-101.833 134.244l-1.059 1.218-0.532 0.594-0.536 0.612h-0.536c-22.743 24.702-37.148 41.308-43.178 49.813-11.037 16.199-13.509 32.594-7.479 49.209 4.263 12.552 20.271 39.060 47.985 79.561 14.577 21.464 26.124 38.666 34.654 51.626 61.495 93.14 88.155 152.658 79.975 178.577l-3.177 6.057c-2.136 3.646-7.643 6.983-16.518 10.024-8.897 3.036-20.267 3.538-34.134 1.515l-153.544-1.209c-2.486 1.004-6.039 0.911-10.665-0.306-4.621-1.217-6.934-1.828-6.934-1.828l-2.672-1.521-2.123-1.828c-1.777-1.209-3.731-3.333-5.866-6.372-2.123-3.027-3.899-6.58-5.317-10.629-16.717-48.998-35.725-94.552-57.055-136.663-13.155-25.11-25.234-46.872-36.261-65.298-11.015-18.419-20.257-31.991-27.719-40.69-7.466-8.708-14.209-15.683-20.262-20.953-6.044-5.271-10.661-7.499-13.855-6.685-3.204 0.815-6.216 1.623-9.074 2.432-4.971 3.646-8.972 8.606-11.99 14.881-3.026 6.275-5.065 14.175-6.132 23.691-1.063 9.523-1.689 17.713-1.87 24.6-0.164 6.878-0.088 16.606 0.275 29.159 0.368 12.558 0.532 21.056 0.532 25.511 0 15.39 0.266 32.093 0.793 50.112 0.541 18.019 0.975 32.297 1.339 42.815 0.363 10.528 0.532 21.668 0.532 33.412s-0.629 20.953-1.87 27.638c-1.223 6.676-3.106 13.156-5.583 19.439-2.494 6.276-6.141 11.131-10.931 14.577-4.799 3.443-10.763 6.174-17.861 8.204-18.84 4.857-42.828 7.484-71.982 7.893-66.108 0.808-108.583-4.055-127.422-14.584-7.464-4.449-14.219-10.527-20.257-18.216-6.399-8.912-7.292-13.775-2.672-14.575 21.329-3.64 36.429-12.347 45.317-26.114l3.203-7.295c2.491-5.263 4.978-14.582 7.468-27.942 2.485-13.36 4.089-28.14 4.796-44.33 1.774-29.565 1.774-54.874 0-75.926-1.78-21.062-3.46-37.458-5.065-49.201s-4.002-21.259-7.199-28.546c-3.203-7.289-5.334-11.744-6.401-13.361s-1.955-2.636-2.662-3.036c-4.62-2.017-9.425-3.045-14.397-3.045-4.98 0-11.020 2.838-18.126 8.51s-14.479 13.463-22.123 23.385c-7.643 9.925-16.262 23.793-25.863 41.608-9.592 17.815-19.546 38.871-29.854 63.167l-8.528 17.62c-5.331 11.335-12.614 27.84-21.857 49.5-9.248 21.669-17.421 42.628-24.526 62.875-2.84 8.504-7.107 14.978-12.794 19.432l-2.668 1.828c-1.774 1.617-4.622 3.333-8.528 5.163-3.912 1.828-7.994 3.138-12.263 3.944l-146.084-1.209c-14.928 0-25.056-3.853-30.39-11.548l-2.134-3.64c-1.067-2.027-1.604-5.266-1.604-9.723 0-4.455 1.067-9.923 3.201-16.396 21.326-57.101 44.517-112.17 69.574-165.216s46.831-95.776 65.308-128.152c18.482-32.399 37.32-62.977 56.514-91.719 19.195-28.751 31.901-47.179 38.118-55.274 6.224-8.108 11.113-14.174 14.666-18.22l13.332-14.577c8.53-9.721 21.057-21.361 37.585-34.924 16.532-13.572 34.834-26.931 54.916-40.103 20.086-13.15 43.453-23.882 70.113-32.181 26.655-8.308 52.602-11.64 77.84-10.032h61.313c12.438 1.223 21.857 5.676 28.26 13.368l2.123 3.044c1.427 2.414 2.76 6.172 3.997 11.223 1.245 5.060 1.865 10.638 1.865 16.704-0.363 17.409 0.798 33.098 3.46 47.068 2.654 13.961 5.685 24.493 9.070 31.583 3.39 7.084 7.209 13.062 11.463 17.909 4.258 4.856 7.297 7.798 9.078 8.812 1.767 1.019 3.181 1.71 4.249 2.123 8.529 3.239 18.57 0.106 30.134-9.42 11.551-9.518 22.388-21.268 32.527-35.229 10.129-13.979 22.3-29.66 36.515-47.068 14.223-17.417 26.661-30.364 37.32-38.88l10.661-7.289c7.116-4.861 16.359-9.318 27.736-13.368 11.356-4.045 21.303-5.055 29.846-3.035l136.481 2.428c13.501 0 24.006 2.543 31.458 7.598 7.466 5.060 11.901 10.638 13.328 16.7 1.427 6.075 1.507 12.964 0.27 20.665-1.263 7.683-2.508 13.054-3.749 16.088z" />
<glyph unicode="&#xe930;" glyph-name="arrow-down" d="M0 704h1024l-512-512-512 512z" />
<glyph unicode="&#xe931;" glyph-name="cart" d="M111.213 871.66h-111.213v44.596h142.977l185.076-535.149h503.609l128.82 356.766h-648.311v44.596h711.829l-161.022-445.958h-519.871l29.731-89.192h474.482v-44.596h-506.625l-49.639 148.914-179.844 520.023zM401.362 46.638c0-36.943-29.949-66.894-66.894-66.894s-66.894 29.95-66.894 66.894c0 36.943 29.949 66.894 66.894 66.894s66.894-29.95 66.894-66.894zM780.426-20.256c36.943 0 66.894 29.95 66.894 66.894s-29.95 66.894-66.894 66.894c-36.943 0-66.894-29.95-66.894-66.894s29.95-66.894 66.894-66.894z" />
<glyph unicode="&#xe932;" glyph-name="city-place" d="M661.159 169.025c-45.14-59.238-90.383-109.019-124.362-143.998-9.184-9.453-17.526-17.804-24.797-24.948-7.271 7.145-15.613 15.495-24.797 24.948-33.98 34.979-79.223 84.759-124.363 143.998-91.866 120.557-176.658 271.751-176.658 413.712 0 183.226 146.445 330.718 325.818 330.718s325.818-147.492 325.818-330.718c0-141.961-84.792-293.154-176.659-413.712zM512-64c0 0 372.364 330.589 372.364 646.737 0 208.357-166.712 377.263-372.364 377.263s-372.364-168.906-372.364-377.263c0-316.148 372.364-646.737 372.364-646.737z" />
<glyph unicode="&#xe933;" glyph-name="favourite" d="M51.2 934.4c0 14.138 11.462 25.6 25.6 25.6h870.4c14.136 0 25.6-11.462 25.6-25.6v-972.799c0-8.54-4.26-16.517-11.356-21.268-7.096-4.756-16.092-5.658-23.992-2.401l-425.452 175.186-425.453-175.186c-7.897-3.256-16.896-2.355-23.992 2.401-7.096 4.751-11.355 12.728-11.355 21.268v972.799zM102.4 908.8v-908.973l399.853 164.644c6.244 2.575 13.251 2.575 19.495 0l399.853-164.644v908.973h-819.2z" />
<glyph unicode="&#xe935;" glyph-name="pers-cabinet" d="M512 447.999c-128.532 0-232.727 104.196-232.727 232.727s104.196 232.727 232.727 232.727c128.531 0 232.727-104.196 232.727-232.727s-104.197-232.727-232.727-232.727zM512 401.454c154.238 0 279.273 125.035 279.273 279.273s-125.035 279.273-279.273 279.273c-154.238 0-279.273-125.035-279.273-279.273s125.035-279.273 279.273-279.273zM860.365-17.456h-696.728c-15.867 26.95-23.999 55.37-23.999 84.364 0 59.788 35.209 119.017 102.52 165.292 67.105 46.136 162.367 76.162 269.844 76.162s202.738-30.026 269.843-76.162c67.314-46.275 102.521-105.505 102.521-165.292 0-28.993-8.131-57.414-23.999-84.364zM885.234-64.001c29.203 39.275 45.675 83.768 45.675 130.909 0 159.060-187.55 288-418.909 288-231.357 0-418.909-128.94-418.909-288 0-47.141 16.473-91.634 45.677-130.909h746.465z" />
<glyph unicode="&#xe936;" glyph-name="search" d="M431.589 144.775c-211.876 0-383.635 171.758-383.635 383.635s171.759 383.635 383.635 383.635c211.877 0 383.635-171.759 383.635-383.635s-171.758-383.635-383.635-383.635zM431.589 96.821c238.362 0 431.59 193.228 431.59 431.59 0 238.36-193.228 431.59-431.59 431.59-238.36 0-431.59-193.23-431.59-431.59 0-238.362 193.23-431.59 431.59-431.59zM990.090-63.999l-287.727 287.727 33.909 33.909 287.727-287.727-33.909-33.909z" />
<glyph unicode="&#xe937;" glyph-name="telegram" d="M47.964 452.379l236.532-72.354c167.541 106.121 505.577 319.809 517.403 325.596 14.782 7.236 36.958 21.706 44.351 14.473 5.913-5.788-7.393-21.706-14.782-28.942l-421.321-376.245-22.175-231.536c12.32 0 44.351 7.236 73.916 36.179l96.091 94.060c49.278-38.588 159.66-124.451 206.964-159.182 59.133-43.412 88.698-14.47 103.481 43.412s81.308 383.478 110.873 520.954c29.565 137.472 59.136 224.3 36.961 238.769-17.739 11.576-66.526 0-88.701-7.236-263.632-98.885-810.112-303.89-886.984-332.833s-27.103-55.473 7.393-65.118z" />
<glyph unicode="&#xe939;" glyph-name="whatsapp" d="M462.345 958.564c-228.153-23.115-413.85-196.154-452.482-421.638-15.372-89.724-5.421-184.518 28.357-270.12 7.419-18.802 26.084-57.954 30.879-64.768 2.324-3.303 5.565 9.511-32.648-129.13-16.156-58.606-31.243-113.387-33.527-121.738-2.313-8.444-3.491-15.171-2.655-15.171 1.275 0 79.493 20.225 122.393 31.646 7.358 1.959 43.326 11.353 79.927 20.881l66.546 17.315 12.985-6.635c104.086-53.216 228.546-68.454 345.233-42.292 52.168 11.706 110.607 35.833 156.836 64.762 65.2 40.812 124.336 100.217 164.458 165.206 63.080 102.178 87.578 222.503 69.615 341.901-21.436 142.425-102.277 268.044-224.419 348.754-67.838 44.821-147.688 72.793-231.685 81.164-18.035 1.797-81.576 1.709-99.814-0.14zM557.485 872.745c169.179-16.297 316.326-138.326 363.319-301.307 12.085-41.916 16.315-72.622 16.366-118.878 0.033-36.849-1.371-52.246-7.544-82.822-30.19-149.407-138.901-271.028-285.176-319.064-114.574-37.616-244.949-23.001-348.602 39.088-6.95 4.163-13.639 7.552-14.866 7.535s-37.35-9.267-80.274-20.545c-42.925-11.286-78.267-20.317-78.536-20.073-0.648 0.581 21.653 83.28 38.368 142.286 1.652 5.832 3.003 11.345 3.003 12.252s-3.894 7.806-8.656 15.331c-32.070 50.682-51.956 104.188-61.446 165.328-2.83 18.225-3.337 27.488-3.358 61.424-0.023 34.085 0.458 43.010 3.261 60.685 14.704 92.704 56.254 174.088 121.791 238.554 91.075 89.58 213.617 132.609 342.351 120.206zM323.697 686.393c-9.996-2.533-17.531-7.381-27.187-17.496-13.656-14.304-20.833-24.347-28.198-39.464-8.845-18.153-12.812-34.444-13.698-56.245-1.96-48.216 16.436-92.814 65.025-157.632 64.41-85.924 137.404-145.961 216.787-178.301 28.448-11.591 67.549-24.111 83.681-26.796 17.876-2.977 48.637-2.249 62.622 1.484 32.277 8.612 68.042 33.539 78.362 54.617 6.237 12.745 10.77 33.033 11.005 49.324 0.252 17.223-0.168 17.706-27.058 30.946-74.934 36.9-90.248 43.564-100.090 43.564-7.034 0-7.1-0.062-27.504-25.903-19.105-24.192-31.056-37.112-36.349-39.295-6.053-2.496-11.791-0.593-42.192 13.992-57.814 27.739-101.64 66.293-138.497 121.84-12.991 19.578-15.873 25.808-14.605 31.557 0.509 2.31 5.613 9.4 11.343 15.757 21.963 24.372 30.969 38.958 30.995 50.208 0.009 3.615-1.78 10.029-4.407 15.796-2.434 5.342-12.422 29.144-22.196 52.892-17.94 43.582-22.631 52.852-28.779 56.864-4.164 2.717-40.649 4.415-49.058 2.286z" />
<glyph unicode="&#xe93b;" glyph-name="apply" d="M1010.061 879.009c15.865-12.499 18.593-35.494 6.092-51.36l-633.903-804.569c-6.016-7.629-14.824-12.559-24.478-13.685-9.655-1.134-19.362 1.631-26.977 7.673l-316.951 251.424c-15.824 12.552-18.476 35.556-5.923 51.379s35.556 18.475 51.379 5.923l288.204-228.621 611.195 775.742c12.5 15.865 35.489 18.594 51.361 6.093z" />
<glyph unicode="&#xe93c;" glyph-name="arrow-backward" d="M1024 475.317h-983.569v-54.643h983.569v54.643zM349.828 768.674l-349.828-320.673 349.828-320.677 36.924 40.283-305.886 280.394 305.886 280.394-36.924 40.28z" />
<glyph unicode="&#xe93d;" glyph-name="bonuses" d="M11.636 448c0 276.343 224.022 500.364 500.364 500.364s500.364-224.022 500.364-500.364c0-276.343-224.022-500.364-500.364-500.364s-500.364 224.022-500.364 500.364zM512 960c-282.769 0-512-229.231-512-512s229.231-512 512-512c282.769 0 512 229.231 512 512s-229.231 512-512 512zM741.739 832.689c-67.171 40.202-145.748 63.311-229.739 63.311v11.637c86.155 0 166.789-23.709 235.716-64.963l-5.976-9.985zM512 610.33v82.034h11.637v-82.034l232.727-0.003v-11.637l-321.851 0.004c-40.304 0-79.153-11.402-107.811-35.126-27.501-22.765-46.088-57.253-47.359-105.268l477.021-0.003v-11.637l-477.091 0.003v-149.354l477.091-0.003v-11.637l-232.727 0.003v-82.036h-11.637v82.036h-244.364v167.332c0 53.99 20.278 93.56 51.645 119.527 31.209 25.835 72.889 37.8 115.232 37.8l77.487-0.001z" />
<glyph unicode="&#xe93e;" glyph-name="chars" d="M0-64v1024h56.889v-1024h-56.889zM0 903.111h170.667v-56.889h-170.667v56.889zM227.556-64v170.667h56.889v-170.667h-56.889zM455.111-64v170.667h56.889v-170.667h-56.889zM682.667-64v170.667h56.889v-170.667h-56.889zM910.223-64v170.667h56.889v-170.667h-56.889zM0 675.556h170.667v-56.889h-170.667v56.889zM0 448h170.667v-56.889h-170.667v56.889zM0 220.444h170.667v-56.889h-170.667v56.889zM0-7.111h1024v-56.889h-1024v56.889z" />
<glyph unicode="&#xe93f;" glyph-name="close" d="M579.626 447.999l444.375 444.375-67.625 67.626-444.375-444.375-444.375 444.375-67.626-67.626 444.375-444.375-444.375-444.375 67.626-67.625 444.375 444.375 444.375-444.375 67.625 67.625-444.375 444.375z" />
<glyph unicode="&#xe940;" glyph-name="comments" d="M369.779 106.667l-142.223-170.667-227.556 170.667v853.333h1024v-853.333h-654.223zM218.453 13.939l124.681 149.617h623.979v739.556h-910.223v-768l161.563-121.173z" />
<glyph unicode="&#xe941;" glyph-name="delivery" d="M0 866.909h791.273v-157.808l-93.091-23.272v-563.648h-418.909v46.546h372.364v553.444l93.091 23.272v74.92h-698.182v-651.636h81.455v-46.546h-128v744.728zM651.636 587.636h266.706l105.658-123.271v-342.183h-116.364v46.546h69.818v278.421l-80.523 93.943h-198.75v-372.364h23.272v-46.546h-69.818v465.455zM209.455 75.636c-38.559 0-69.818 31.26-69.818 69.818s31.259 69.818 69.818 69.818c38.559 0 69.818-31.26 69.818-69.818s-31.259-69.818-69.818-69.818zM209.455 29.091c64.265 0 116.364 52.099 116.364 116.364s-52.097 116.364-116.364 116.364c-64.265 0-116.364-52.099-116.364-116.364s52.097-116.364 116.364-116.364zM814.545 75.636c-38.558 0-69.818 31.26-69.818 69.818s31.26 69.818 69.818 69.818c38.558 0 69.818-31.26 69.818-69.818s-31.26-69.818-69.818-69.818zM814.545 29.091c64.265 0 116.364 52.099 116.364 116.364s-52.099 116.364-116.364 116.364c-64.265 0-116.364-52.099-116.364-116.364s52.099-116.364 116.364-116.364z" />
<glyph unicode="&#xe942;" glyph-name="list-marker-cir" d="M1024 448c0-282.769-229.231-512-512-512s-512 229.231-512 512c0 282.769 229.231 512 512 512s512-229.231 512-512z" />
<glyph unicode="&#xe944;" glyph-name="logout" d="M942.68 945.732v-995.466h-739.467v995.466h739.467zM188.947 959.999v-1024h768v1024h-768zM498.761 565.566l124.511-124.511-124.511-124.51-10.088 10.088 107.289 107.287h-528.911v14.267h528.911l-107.289 107.289 10.088 10.088z" />
<glyph unicode="&#xe945;" glyph-name="menu" d="M0.001 857.601h1024v-51.2h-1024v51.2zM0.001 601.601h1024v-51.2h-1024v51.2zM0.001 345.602h1024v-51.2h-1024v51.2zM0.001 89.601h512.001v-51.2h-512.001v51.2z" />
<glyph unicode="&#xe946;" glyph-name="module-row" d="M698.181 866.908v-837.818h-372.363v837.818h372.363zM279.272 913.454v-930.908h465.455v930.908h-465.455zM279.272 680.726v-465.455h-93.091v465.455h93.091zM139.636 727.272v-558.545h186.182v558.545h-186.182zM139.636 541.089v-186.182h-93.091v186.182h93.091zM-0.001 587.635v-279.273h186.182v279.273h-186.182zM837.817 680.726v-465.455h-93.091v465.455h93.091zM698.181 727.272v-558.545h186.182v558.545h-186.182zM977.454 541.089v-186.182h-93.091v186.182h93.091zM837.817 587.635v-279.273h186.182v279.273h-186.182z" />
<glyph unicode="&#xe947;" glyph-name="my-orders" d="M131.874 733.090h760.242v-11.637h-760.242v11.637zM131.874 543.028h760.242v-11.637h-760.242v11.637zM131.874 352.972h760.242v-11.637h-760.242v11.637zM131.874 162.91h380.122v-11.637h-380.122v11.637zM1012.363 890.181v-884.364h-1000.727v884.364h1000.727zM-0.001 901.818v-907.636h1024v907.636h-1024z" />
<glyph unicode="&#xe948;" glyph-name="telephone" d="M306.321 858.342c44.174-46.077 84.675-91.85 110.322-128.288 14.564-20.692 15.432-49.306 1.193-74.299l-87.293-87.293 6.93-22.636 37.657 11.529c-37.657-11.529-37.631-11.614-37.629-11.625l0.039-0.124 0.105-0.336 0.325-1.010c0.267-0.821 0.638-1.935 1.117-3.318 0.959-2.767 2.354-6.62 4.23-11.38 3.745-9.51 9.427-22.709 17.394-38.148 15.868-30.749 41.176-71.117 78.92-108.861 37.699-37.699 78.779-63.753 110.098-80.333 15.743-8.334 29.249-14.393 38.964-18.426 4.864-2.016 8.796-3.528 11.604-4.568 1.405-0.519 2.53-0.929 3.352-1.213l1.004-0.354 0.327-0.111 0.207-0.071c0.010 0 0 0 12.454 37.366l-12.454-37.366 23.091-7.696 87.761 87.766c25.001 14.239 53.607 13.372 74.299-1.193 36.358-25.588 85.768-69.71 132.003-114.031 24.772-23.755 29.347-58.437 13.729-82.854-27.473-42.951-41.509-64.186-59.137-82.097-17.289-17.572-39.39-33.232-85.287-60.751-3.403-2.041-8.585-2.733-14.131-0.37l-5.143 2.198-5.435 0.662c0 0 0.023-0.007 0 0-0.023 0-0.055 0.007-0.095 0.016l-1.158 0.165c-1.149 0.181-3.064 0.496-5.703 0.992-5.277 1.008-13.445 2.741-24.174 5.592-21.456 5.703-53.151 15.855-92.488 33.459-78.586 35.161-188.040 100.229-307.359 219.551-119.312 119.31-182.561 226.939-215.934 303.542-16.708 38.351-25.984 69.054-31.043 89.714-2.53 10.333-4.007 18.158-4.829 23.175-0.412 2.509-0.661 4.316-0.795 5.384l-0.13 1.093c-0.002 0.021 0.001-0.014 0 0l-0.55 6.024-2.432 5.701c-2.364 5.542-1.673 10.724 0.369 14.13 27.519 45.892 43.181 67.998 60.749 85.284 17.914 17.627 39.15 31.665 82.096 59.136 24.421 15.621 59.102 11.051 82.857-13.729zM421.105 547.632l58.892 58.892 2.333 3.684c31.139 49.136 34.582 114.236-1.276 165.181-29.201 41.487-73.093 90.75-117.875 137.462-45.834 47.807-121.481 64.385-182.158 25.572-41.198-26.352-69.986-44.832-94.896-69.343-25.257-24.852-45.224-54.506-73.056-100.922-14.93-24.897-16.531-54.205-7.532-79.722 0.23-1.645 0.524-3.607 0.896-5.874 1.141-6.951 3.019-16.773 6.050-29.153 6.064-24.764 16.738-59.747 35.337-102.439 37.241-85.484 106.039-201.371 232.449-327.778 126.402-126.402 243.924-196.842 330.884-235.752 43.438-19.439 79.156-30.962 104.423-37.682 12.634-3.355 22.652-5.514 29.727-6.853 2.599-0.496 4.805-0.882 6.593-1.174 25.638-9.216 55.191-7.696 80.262 7.341 46.416 27.836 76.071 47.795 100.922 73.055 24.512 24.913 42.99 53.702 69.346 94.896 38.808 60.673 22.235 136.327-25.575 182.157-46.558 44.634-99.599 92.325-141.171 121.584-50.945 35.857-116.045 32.416-165.178 1.276l-3.685-2.333-58.546-58.546c-6.257 2.843-13.593 6.385-21.684 10.669-26.698 14.135-60.7 35.862-91.256 66.418-30.512 30.512-51.378 63.622-64.622 89.285-3.863 7.486-7.045 14.276-9.602 20.1zM412.757 568.982c-0.006 0.021-0.005 0.016 0 0z" />
<glyph unicode="&#xe949;" glyph-name="to-bank-card" d="M0 655.238h1024v-158.477h-1024v158.477zM12.191 643.048v-134.095h999.619v134.095h-999.619zM73.143 813.714h877.714c40.395 0 73.143-32.747 73.143-73.143v-585.143c0-40.395-32.747-73.143-73.143-73.143h-877.714c-40.395 0-73.143 32.747-73.143 73.143v585.143c0 40.395 32.747 73.143 73.143 73.143zM73.143 801.523c-33.663 0-60.952-27.289-60.952-60.952v-585.143c0-33.663 27.289-60.952 60.952-60.952h877.714c33.663 0 60.952 27.289 60.952 60.952v585.143c0 33.663-27.289 60.952-60.952 60.952h-877.714zM310.857 204.191h-182.857v12.191h182.857v-12.191zM664.381 204.191h-304.762v12.191h304.762v-12.191z" />
<glyph unicode="&#xe94a;" glyph-name="to-bank-transmit" d="M69.818 773.821h884.364c38.559 0 69.818-31.259 69.818-69.818v-512.004c0-38.559-31.259-69.818-69.818-69.818h-884.364c-38.559 0-69.818 31.259-69.818 69.818v512.004c0 38.559 31.259 69.818 69.818 69.818zM69.818 762.184c-32.133 0-58.181-26.049-58.181-58.181v-512.004c0-32.133 26.049-58.181 58.181-58.181h884.364c32.133 0 58.181 26.049 58.181 58.181v512.004c0 32.133-26.049 58.181-58.181 58.181h-884.364zM127.999 389.821h488.727v-128h-488.727v128zM139.636 378.184v-104.727h465.455v104.727h-465.455zM302.544 529.457h-174.545v11.637h174.545v-11.637zM686.544 634.184h-81.455v11.637h81.455v-11.637zM802.908 634.184h-81.455v11.637h81.455v-11.637zM919.271 634.184h-81.455v11.637h81.455v-11.637zM418.908 471.275h-290.909v11.637h290.909v-11.637z" />
<glyph unicode="&#xe94b;" glyph-name="to-hands" d="M904.704 913.679l13.772-144.625h-806.085l-1.027 12.403 793.339 132.222zM187.834 781.541h716.91l-11.202 117.618-705.709-117.618zM74.926 781.539h874.146c41.381 0 74.927-33.546 74.927-74.927v-649.366c0-41.381-33.546-74.927-74.927-74.927h-874.146c-41.381 0-74.927 33.546-74.927 74.927v649.366c0 41.381 33.546 74.927 74.927 74.927zM74.926 769.052c-34.484 0-62.439-27.955-62.439-62.439v-649.366c0-34.484 27.955-62.439 62.439-62.439h874.146c34.484 0 62.439 27.955 62.439 62.439v649.366c0 34.484-27.955 62.439-62.439 62.439h-874.146zM1023.998 469.345v-174.829h-187.317c-27.587 0-49.952 22.364-49.952 49.952v74.927c0 27.587 22.364 49.952 49.952 49.952h187.317zM836.681 456.857c-20.692 0-37.463-16.772-37.463-37.463v-74.927c0-20.692 16.772-37.463 37.463-37.463h174.829v149.854h-174.829zM874.145 419.393c-20.692 0-37.463-16.772-37.463-37.463s16.772-37.463 37.463-37.463c20.692 0 37.463 16.772 37.463 37.463s-16.772 37.463-37.463 37.463zM874.145 356.955c-13.794 0-24.975 11.182-24.975 24.975s11.182 24.975 24.975 24.975c13.794 0 24.975-11.182 24.975-24.975s-11.182-24.975-24.975-24.975z" />
</font>
</defs>
</svg>
