<svg width="16" height="16" viewBox="0 0 16 16" fill="none" xmlns="http://www.w3.org/2000/svg">
<path d="M2.31074 9.17078C2.0944 8.99917 1.7799 9.03542 1.60828 9.25176C1.43667 9.4681 1.47292 9.7826 1.68926 9.95422L2.31074 9.17078ZM6.33333 13L6.0226 13.3917C6.12671 13.4743 6.25942 13.5121 6.39142 13.4966C6.52341 13.4812 6.64383 13.4138 6.72608 13.3094L6.33333 13ZM15.3927 2.30944C15.5636 2.09253 15.5263 1.77815 15.3094 1.60725C15.0925 1.43636 14.7782 1.47366 14.6073 1.69056L15.3927 2.30944ZM1.68926 9.95422L6.0226 13.3917L6.64407 12.6083L2.31074 9.17078L1.68926 9.95422ZM6.72608 13.3094L15.3927 2.30944L14.6073 1.69056L5.94059 12.6906L6.72608 13.3094Z" fill="#272727"/>
</svg>
