<svg width="16" height="16" viewBox="0 0 16 16" fill="none" xmlns="http://www.w3.org/2000/svg">
<circle cx="8" cy="8" r="2.5" stroke="#272727"/>
<path d="M0.969635 8.46738C0.820334 8.28224 0.699876 8.12292 0.610119 8C0.699876 7.87708 0.820334 7.71776 0.969635 7.53262C1.33492 7.07966 1.86976 6.476 2.54684 5.87354C3.9106 4.66007 5.79578 3.5 8 3.5C10.2042 3.5 12.0894 4.66007 13.4532 5.87354C14.1302 6.476 14.6651 7.07966 15.0304 7.53262C15.1797 7.71776 15.3001 7.87708 15.3899 8C15.3001 8.12292 15.1797 8.28224 15.0304 8.46738C14.6651 8.92034 14.1302 9.524 13.4532 10.1265C12.0894 11.3399 10.2042 12.5 8 12.5C5.79578 12.5 3.9106 11.3399 2.54684 10.1265C1.86976 9.524 1.33492 8.92034 0.969635 8.46738Z" stroke="#272727"/>
</svg>
