<svg width="16" height="16" viewBox="0 0 16 16" fill="none" xmlns="http://www.w3.org/2000/svg">
<circle cx="8.00035" cy="4.36364" r="3.86364" stroke="#272727"/>
<mask id="path-2-inside-1_148_21896" fill="white">
<path fill-rule="evenodd" clip-rule="evenodd" d="M13.8323 16C14.2886 15.4375 14.546 14.8002 14.546 14.125C14.546 11.8468 11.6155 10 8.00053 10C4.38558 10 1.45508 11.8468 1.45508 14.125C1.45508 14.8002 1.71246 15.4375 2.16875 16H13.8323Z"/>
</mask>
<path d="M13.8323 16V17H14.3088L14.609 16.63L13.8323 16ZM2.16875 16L1.39211 16.63L1.69227 17H2.16875V16ZM13.546 14.125C13.546 14.5326 13.3935 14.9536 13.0557 15.3701L14.609 16.63C15.1837 15.9213 15.546 15.0677 15.546 14.125H13.546ZM8.00053 11C9.64903 11 11.0942 11.4231 12.0957 12.0542C13.1102 12.6936 13.546 13.4511 13.546 14.125H15.546C15.546 12.5208 14.5165 11.2158 13.162 10.3622C11.7945 9.50035 9.96699 9 8.00053 9V11ZM2.45508 14.125C2.45508 13.4511 2.89086 12.6936 3.90536 12.0542C4.90683 11.4231 6.35204 11 8.00053 11V9C6.03407 9 4.20656 9.50035 2.83903 10.3622C1.48455 11.2158 0.455078 12.5208 0.455078 14.125H2.45508ZM2.94539 15.3701C2.60757 14.9536 2.45508 14.5326 2.45508 14.125H0.455078C0.455078 15.0677 0.817342 15.9213 1.39211 16.63L2.94539 15.3701ZM2.16875 17H13.8323V15H2.16875V17Z" fill="#272727" mask="url(#path-2-inside-1_148_21896)"/>
</svg>
