<svg width="16" height="16" viewBox="0 0 16 16" fill="none" xmlns="http://www.w3.org/2000/svg">
<path d="M4.5 2L4.5 14" stroke="#272727"/>
<path d="M4.5 2L4.12371 1.67075L4.5 1.2407L4.87629 1.67075L4.5 2ZM0.623712 5.67075L4.12371 1.67075L4.87629 2.32925L1.37629 6.32925L0.623712 5.67075ZM4.87629 1.67075L8.37629 5.67075L7.62371 6.32925L4.12371 2.32925L4.87629 1.67075Z" fill="#272727"/>
<path d="M11.5 14L11.5 2" stroke="#272727"/>
<path d="M11.5 14L11.8763 14.3293L11.5 14.7593L11.1237 14.3293L11.5 14ZM15.3763 10.3293L11.8763 14.3293L11.1237 13.6707L14.6237 9.67075L15.3763 10.3293ZM11.1237 14.3293L7.62371 10.3293L8.37629 9.67075L11.8763 13.6707L11.1237 14.3293Z" fill="#272727"/>
</svg>
