<svg width="16" height="16" viewBox="0 0 16 16" fill="none" xmlns="http://www.w3.org/2000/svg">
<path d="M2.09476 4.19211C1.97974 4.38393 1.97142 4.61951 2.05898 4.82481C2.05898 4.82481 2.2922 7.38065 5.41186 10.5003C8.53152 13.62 11.1752 13.941 11.1752 13.941C11.3805 14.0286 11.6161 14.0203 11.8079 13.9052C12.9798 13.2025 13.1222 13.0006 13.8055 11.9323C14.151 11.3921 14.0168 10.6917 13.556 10.25C12.967 9.68531 12.3166 9.10249 11.822 8.75432C11.3612 8.43005 10.7557 8.45027 10.2803 8.75157L9.34159 9.69024C9.34159 9.69024 8.30171 9.34361 7.43513 8.47704C6.56856 7.61047 6.26267 6.61132 6.26267 6.61132L7.20134 5.67265C7.50264 5.19721 7.52286 4.59167 7.19859 4.13095C6.85042 3.63628 6.31469 3.033 5.75 2.44398C5.30825 1.9832 4.60788 1.84896 4.06769 2.1945C2.99941 2.87785 2.79752 3.02018 2.09476 4.19211Z" stroke="#272727"/>
</svg>
