<svg width="22" height="22" viewBox="0 0 22 22" fill="none" xmlns="http://www.w3.org/2000/svg">
<rect opacity="0.1" y="0.0410156" width="21.9178" height="21.9178" rx="10.9589" fill="white"/>
<path d="M5.3502 10.9562L7.71281 11.6789C9.3863 10.6189 12.7628 8.48445 12.881 8.42664C13.0286 8.35436 13.2501 8.20982 13.3239 8.28209C13.383 8.33991 13.2501 8.49891 13.1763 8.57118L8.96788 12.3293L8.74639 14.642C8.86944 14.642 9.18938 14.5698 9.4847 14.2807L10.4445 13.3411C10.9367 13.7266 12.0393 14.5842 12.5118 14.9311C13.1024 15.3648 13.3978 15.0757 13.5454 14.4975C13.6931 13.9193 14.3576 10.6671 14.6529 9.2939C14.9482 7.92073 15.2436 7.05346 15.0221 6.90892C14.8449 6.79328 14.3576 6.90892 14.1361 6.98119C11.5028 7.96891 6.04421 10.0166 5.27637 10.3057C4.50852 10.5948 5.00565 10.8598 5.3502 10.9562Z" fill="white"/>
</svg>
