<svg width="22" height="22" viewBox="0 0 22 22" fill="none" xmlns="http://www.w3.org/2000/svg">
<rect opacity="0.1" x="0.0820312" y="0.0410156" width="21.9178" height="21.9178" rx="10.9589" fill="white"/>
<path fill-rule="evenodd" clip-rule="evenodd" d="M12.2181 7.14675C13.3774 7.37482 14.3178 8.28775 14.577 9.43657C14.6957 9.96265 14.6487 10.7128 14.4871 10.8712C14.3807 10.9755 14.2216 10.9736 14.1126 10.8667C14.0156 10.7716 14.0152 10.7669 14.0681 10.346C14.1371 9.79759 13.9986 9.22383 13.6823 8.74795C13.3652 8.27084 12.7723 7.85087 12.2175 7.71045C11.9722 7.64835 11.4385 7.63277 11.1 7.67786C10.8997 7.70452 10.8832 7.70137 10.801 7.62075C10.6322 7.45531 10.7179 7.20533 10.964 7.14544C11.2681 7.07145 11.8384 7.07205 12.2181 7.14675ZM8.99451 7.70288C9.26035 7.82903 9.84895 8.55455 10.0791 9.0397C10.2386 9.376 10.186 9.53608 9.82175 9.82271C9.50236 10.074 9.4441 10.309 9.60663 10.6904C9.88398 11.3411 10.4367 11.8886 11.1891 12.2577C11.6181 12.4683 11.8534 12.4286 12.0785 12.1079C12.1374 12.024 12.2553 11.9154 12.3405 11.8664C12.4744 11.7895 12.5221 11.7798 12.6921 11.795C12.9534 11.8182 13.0715 11.8819 13.6923 12.3352C14.2612 12.7506 14.3705 12.8766 14.3705 13.117C14.3705 13.441 13.9757 13.9366 13.5565 14.1389C13.3652 14.2312 13.2918 14.2483 13.0882 14.2483C12.8809 14.2483 12.8034 14.2295 12.5407 14.1153C10.2648 13.1258 8.65469 11.5243 7.79123 9.39141C7.65481 9.05441 7.62795 8.95158 7.62511 8.75499C7.61951 8.3667 7.82387 8.03265 8.19875 7.8173C8.52716 7.62865 8.76575 7.59435 8.99451 7.70288ZM11.9205 7.93749C12.6096 8.04015 13.2294 8.46923 13.5384 9.05732C13.6155 9.20424 13.6956 9.37718 13.7164 9.44166C13.7846 9.65395 13.8251 10.0494 13.8016 10.2746C13.7825 10.4571 13.7611 10.513 13.6801 10.5925C13.5982 10.6727 13.5634 10.6852 13.4722 10.6674C13.2639 10.6265 13.2263 10.5526 13.2362 10.2036C13.2463 9.84374 13.1893 9.59145 13.0326 9.30335C12.8349 8.93969 12.3928 8.60995 11.9651 8.50712C11.8732 8.48504 11.6518 8.47041 11.473 8.47459C11.157 8.482 11.1458 8.47969 11.0677 8.39062C10.9658 8.27452 10.9656 8.16375 11.0672 8.04806C11.1862 7.91236 11.4889 7.87314 11.9205 7.93749ZM11.8485 8.77589C12.3523 8.88067 12.7449 9.23887 12.9018 9.73686C12.9934 10.0275 12.9897 10.1852 12.8884 10.3006C12.8274 10.37 12.7764 10.3929 12.6825 10.3929C12.5027 10.3929 12.4255 10.3018 12.3886 10.0455C12.3325 9.6572 12.0491 9.35822 11.6999 9.31899C11.4767 9.29394 11.3655 9.24172 11.3096 9.13577C11.2462 9.01559 11.2758 8.89179 11.3887 8.8047C11.4871 8.72886 11.591 8.72236 11.8485 8.77589Z" fill="white"/>
<path fill-rule="evenodd" clip-rule="evenodd" d="M10.2725 5.17514C8.54737 5.33214 7.30923 5.79194 6.51138 6.57186C5.91902 7.15094 5.66347 7.68788 5.4884 8.7213C5.21142 10.356 5.2228 11.6649 5.52432 12.8518C5.77071 13.8219 6.18178 14.5004 6.79813 14.9546C7.05888 15.1467 7.22797 15.2312 7.69645 15.4037C7.89941 15.4784 8.07738 15.558 8.09198 15.5805C8.1066 15.603 8.11877 16.1226 8.11907 16.7352L8.11959 17.849H8.37941H8.63923L9.61505 16.8952L10.5909 15.9414L11.3971 15.9076C12.5885 15.8577 12.877 15.8396 13.3434 15.7858C14.9319 15.6025 15.9266 15.0315 16.4574 13.9984C16.8524 13.2295 17.0259 12.4928 17.1085 11.2335C17.1993 9.84971 16.9796 8.26106 16.5804 7.41422C15.886 5.94086 14.166 5.20864 11.3148 5.17243C10.8261 5.1662 10.3571 5.16744 10.2725 5.17514Z" stroke="white" stroke-width="1.0246"/>
</svg>
