<svg width="22" height="22" viewBox="0 0 22 22" fill="none" xmlns="http://www.w3.org/2000/svg">
<rect opacity="0.1" x="0.0429688" y="0.0410156" width="21.9178" height="21.9178" rx="10.9589" fill="white"/>
<path fill-rule="evenodd" clip-rule="evenodd" d="M10.4119 4.92873C7.69888 5.20359 5.49072 7.26123 5.03134 9.94249C4.84854 11.0094 4.96688 12.1366 5.36854 13.1545C5.45676 13.3781 5.67872 13.8437 5.73572 13.9247C5.76335 13.964 5.80189 13.8116 5.3475 15.4602C5.15538 16.1571 4.97598 16.8085 4.94883 16.9078C4.92132 17.0082 4.90732 17.0882 4.91726 17.0882C4.93242 17.0882 5.86252 16.8477 6.37265 16.7119C6.46015 16.6886 6.88785 16.5769 7.32308 16.4636L8.1144 16.2577L8.26881 16.3366C9.50651 16.9694 10.9865 17.1506 12.374 16.8395C12.9944 16.7003 13.6893 16.4134 14.239 16.0694C15.0143 15.5841 15.7175 14.8777 16.1946 14.1049C16.9447 12.8899 17.236 11.4591 17.0224 10.0393C16.7675 8.34569 15.8062 6.85194 14.3538 5.8922C13.5471 5.35923 12.5976 5.0266 11.5988 4.92706C11.3843 4.90569 10.6288 4.90675 10.4119 4.92873ZM11.5432 5.94921C13.5549 6.14299 15.3047 7.59407 15.8635 9.5321C16.0072 10.0305 16.0575 10.3957 16.0581 10.9457C16.0585 11.3839 16.0418 11.567 15.9684 11.9306C15.6094 13.7072 14.3167 15.1534 12.5773 15.7246C11.2149 16.1719 9.66461 15.9981 8.43204 15.2598C8.3494 15.2103 8.26985 15.17 8.25526 15.1702C8.24068 15.1704 7.81113 15.2804 7.3007 15.4145C6.79027 15.5487 6.37002 15.6561 6.36682 15.6532C6.35911 15.6463 6.6243 14.6629 6.82306 13.9613C6.8427 13.8919 6.85877 13.8263 6.85877 13.8156C6.85877 13.8048 6.81246 13.7227 6.75584 13.6333C6.37449 13.0306 6.13802 12.3943 6.02517 11.6673C5.99153 11.4506 5.9855 11.3404 5.98524 10.9369C5.98497 10.5316 5.99068 10.4255 6.02402 10.2153C6.19887 9.11292 6.69294 8.14517 7.47226 7.37861C8.55525 6.31339 10.0124 5.80174 11.5432 5.94921ZM8.7632 8.16516C8.64434 8.19528 8.55473 8.25294 8.43992 8.3732C8.27754 8.54329 8.19219 8.66272 8.10462 8.84247C7.99944 9.05834 7.95228 9.25205 7.94174 9.51128C7.91843 10.0846 8.13718 10.6149 8.71496 11.3857C9.48087 12.4075 10.3489 13.1214 11.2928 13.5059C11.6311 13.6437 12.096 13.7926 12.2879 13.8246C12.5004 13.8599 12.8662 13.8513 13.0325 13.8069C13.4163 13.7045 13.8416 13.4081 13.9643 13.1575C14.0385 13.0059 14.0924 12.7646 14.0952 12.5709C14.0982 12.3661 14.0932 12.3604 13.7734 12.2029C12.8824 11.7642 12.7003 11.6849 12.5833 11.6849C12.4996 11.6849 12.4988 11.6857 12.2562 11.9929C12.029 12.2806 11.8869 12.4342 11.824 12.4602C11.752 12.4899 11.6838 12.4672 11.3222 12.2938C10.6348 11.9639 10.1136 11.5055 9.67536 10.845C9.52088 10.6122 9.4866 10.5381 9.50168 10.4697C9.50773 10.4423 9.56843 10.3579 9.63656 10.2823C9.89772 9.99254 10.0048 9.81909 10.0051 9.68531C10.0052 9.64233 9.98395 9.56605 9.95271 9.49747C9.92377 9.43395 9.805 9.15092 9.68877 8.86852C9.47545 8.35028 9.41966 8.24005 9.34655 8.19234C9.29703 8.16004 8.86318 8.13984 8.7632 8.16516Z" fill="white"/>
</svg>
