<svg width="24" height="24" viewBox="0 0 24 24" fill="none" xmlns="http://www.w3.org/2000/svg">
<path fill-rule="evenodd" clip-rule="evenodd" d="M2.49379 2H0V1H2.84993H3.20606L3.32247 1.33658L7.35614 13H18.6489L21.5375 5H7V4H22.2496H22.9618L22.7199 4.66981L19.4703 13.6698L19.3511 14H19H7.69371L8.36038 16H8.36708H8.37755H8.38816H8.3989H8.40978H8.4208H8.43194H8.44322H8.45463H8.46618H8.47785H8.48966H8.50159H8.51366H8.52585H8.53817H8.55062H8.5632H8.57591H8.58874H8.6017H8.61479H8.628H8.64133H8.65479H8.66838H8.68208H8.69591H8.70986H8.72394H8.73813H8.75244H8.76688H8.78143H8.79611H8.8109H8.82581H8.84084H8.85598H8.87124H8.88662H8.90211H8.91772H8.93345H8.94928H8.96524H8.9813H8.99748H9.01376H9.03016H9.04668H9.0633H9.08003H9.09687H9.11382H9.13088H9.14805H9.16532H9.1827H9.20019H9.21779H9.23549H9.25329H9.2712H9.28921H9.30733H9.32555H9.34387H9.3623H9.38082H9.39945H9.41817H9.437H9.45593H9.47495H9.49407H9.5133H9.53262H9.55203H9.57154H9.59115H9.61086H9.63065H9.65055H9.67053H9.69061H9.71078H9.73105H9.75141H9.77186H9.79239H9.81302H9.83374H9.85455H9.87545H9.89643H9.91751H9.93867H9.95992H9.98125H10.0027H10.0242H10.0458H10.0674H10.0892H10.111H10.133H10.155H10.1771H10.1992H10.2215H10.2438H10.2662H10.2887H10.3113H10.3339H10.3566H10.3794H10.4023H10.4253H10.4483H10.4714H10.4946H10.5178H10.5412H10.5646H10.588H10.6116H10.6352H10.6589H10.6826H10.7065H10.7304H10.7543H10.7784H10.8025H10.8266H10.8509H10.8752H10.8996H10.924H10.9485H10.9731H10.9977H11.0224H11.0471H11.072H11.0968H11.1218H11.1468H11.1718H11.197H11.2222H11.2474H11.2727H11.2981H11.3235H11.3489H11.3745H11.4001H11.4257H11.4514H11.4771H11.5029H11.5288H11.5547H11.5807H11.6067H11.6328H11.6589H11.685H11.7113H11.7375H11.7638H11.7902H11.8166H11.8431H11.8696H11.8961H11.9227H11.9494H11.9761H12.0028H12.0296H12.0564H12.0833H12.1102H12.1371H12.1641H12.1911H12.2182H12.2453H12.2725H12.2996H12.3269H12.3541H12.3814H12.4088H12.4361H12.4635H12.491H12.5185H12.546H12.5735H12.6011H12.6287H12.6564H12.684H12.7117H12.7395H12.7672H12.795H12.8229H12.8507H12.8786H12.9065H12.9345H12.9624H12.9904H13.0184H13.0465H13.0745H13.1026H13.1307H13.1589H13.187H13.2152H13.2434H13.2716H13.2999H13.3282H13.3564H13.3847H13.4131H13.4414H13.4698H13.4981H13.5265H13.5549H13.5834H13.6118H13.6402H13.6687H13.6972H13.7257H13.7542H13.7827H13.8112H13.8398H13.8683H13.8969H13.9254H13.954H13.9826H14.0112H14.0398H14.0684H14.097H14.1256H14.1543H14.1829H14.2115H14.2402H14.2688H14.2975H14.3261H14.3548H14.3834H14.4121H14.4407H14.4694H14.498H14.5267H14.5553H14.584H14.6126H14.6412H14.6699H14.6985H14.7271H14.7557H14.7844H14.813H14.8416H14.8702H14.8988H14.9273H14.9559H14.9845H15.013H15.0416H15.0701H15.0986H15.1271H15.1556H15.1841H15.2126H15.241H15.2695H15.2979H15.3263H15.3547H15.3831H15.4114H15.4398H15.4681H15.4964H15.5247H15.553H15.5812H15.6094H15.6377H15.6658H15.694H15.7221H15.7503H15.7784H15.8064H15.8345H15.8625H15.8905H15.9185H15.9464H15.9743H16.0022H16.0301H16.0579H16.0857H16.1135H16.1412H16.169H16.1966H16.2243H16.2519H16.2795H16.307H16.3346H16.3621H16.3895H16.4169H16.4443H16.4716H16.499H16.5262H16.5535H16.5807H16.6078H16.6349H16.662H16.689H16.716H16.743H16.7699H16.7968H16.8236H16.8504H16.8771H16.9038H16.9305H16.9571H16.9837H17.0102H17.0367H17.0631H17.0894H17.1158H17.1421H17.1683H17.1945H17.2206H17.2467H17.2727H17.2987H17.3246H17.3505H17.3763H17.402H17.4277H17.4534H17.479H17.5045H17.53H17.5555H17.5808H17.6061H17.6314H17.6566H17.6817H17.7068H17.7318H17.7568H17.7817H17.8065H17.8313H17.856H17.8806H17.9052H17.9297H17.9542H17.9786H18.0029H18.0271H18.0513H18.0754H18.0995H18.1235H18.1474H18.1712H18.195H18.2187H18.2423H18.2659H18.2894H18.3128H18.3362H18.3594H18.3826H18.4057H18.4288H18.4518H18.4747H18.4975H18.5202H18.5429H18.5655H18.588H18.6104H18.6327H18.655H18.6772H18.6993H18.7213H18.7433H18.7651H18.7869H18.8086H18.8302H18.8517H18.8732H18.8945H18.9158H18.937H18.9581H18.9791H19V17H18.9791H18.9581H18.937H18.9158H18.8945H18.8732H18.8517H18.8302H18.8086H18.7869H18.7651H18.7433H18.7213H18.6993H18.6772H18.655H18.6327H18.6104H18.588H18.5655H18.5429H18.5202H18.4975H18.4747H18.4518H18.4288H18.4057H18.3826H18.3594H18.3362H18.3128H18.2894H18.2659H18.2423H18.2187H18.195H18.1712H18.1474H18.1235H18.0995H18.0754H18.0513H18.0271H18.0029H17.9786H17.9542H17.9297H17.9052H17.8806H17.856H17.8313H17.8065H17.7817H17.7568H17.7318H17.7068H17.6817H17.6566H17.6314H17.6061H17.5808H17.5555H17.53H17.5045H17.479H17.4534H17.4277H17.402H17.3763H17.3505H17.3246H17.2987H17.2727H17.2467H17.2206H17.1945H17.1683H17.1421H17.1158H17.0894H17.0631H17.0367H17.0102H16.9837H16.9571H16.9305H16.9038H16.8771H16.8504H16.8236H16.7968H16.7699H16.743H16.716H16.689H16.662H16.6349H16.6078H16.5807H16.5535H16.5262H16.499H16.4716H16.4443H16.4169H16.3895H16.3621H16.3346H16.307H16.2795H16.2519H16.2243H16.1966H16.169H16.1412H16.1135H16.0857H16.0579H16.0301H16.0022H15.9743H15.9464H15.9185H15.8905H15.8625H15.8345H15.8064H15.7784H15.7503H15.7221H15.694H15.6658H15.6377H15.6094H15.5812H15.553H15.5247H15.4964H15.4681H15.4398H15.4114H15.3831H15.3547H15.3263H15.2979H15.2695H15.241H15.2126H15.1841H15.1556H15.1271H15.0986H15.0701H15.0416H15.013H14.9845H14.9559H14.9273H14.8988H14.8702H14.8416H14.813H14.7844H14.7557H14.7271H14.6985H14.6699H14.6412H14.6126H14.584H14.5553H14.5267H14.498H14.4694H14.4407H14.4121H14.3834H14.3548H14.3261H14.2975H14.2688H14.2402H14.2115H14.1829H14.1543H14.1256H14.097H14.0684H14.0398H14.0112H13.9826H13.954H13.9254H13.8969H13.8683H13.8398H13.8112H13.7827H13.7542H13.7257H13.6972H13.6687H13.6402H13.6118H13.5834H13.5549H13.5265H13.4981H13.4698H13.4414H13.4131H13.3847H13.3564H13.3282H13.2999H13.2716H13.2434H13.2152H13.187H13.1589H13.1307H13.1026H13.0745H13.0465H13.0184H12.9904H12.9624H12.9345H12.9065H12.8786H12.8507H12.8229H12.795H12.7672H12.7395H12.7117H12.684H12.6564H12.6287H12.6011H12.5735H12.546H12.5185H12.491H12.4635H12.4361H12.4088H12.3814H12.3541H12.3269H12.2996H12.2725H12.2453H12.2182H12.1911H12.1641H12.1371H12.1102H12.0833H12.0564H12.0296H12.0028H11.9761H11.9494H11.9227H11.8961H11.8696H11.8431H11.8166H11.7902H11.7638H11.7375H11.7113H11.685H11.6589H11.6328H11.6067H11.5807H11.5547H11.5288H11.5029H11.4771H11.4514H11.4257H11.4001H11.3745H11.3489H11.3235H11.2981H11.2727H11.2474H11.2222H11.197H11.1718H11.1468H11.1218H11.0968H11.072H11.0471H11.0224H10.9977H10.9731H10.9485H10.924H10.8996H10.8752H10.8509H10.8266H10.8025H10.7784H10.7543H10.7304H10.7065H10.6826H10.6589H10.6352H10.6116H10.588H10.5646H10.5412H10.5178H10.4946H10.4714H10.4483H10.4253H10.4023H10.3794H10.3566H10.3339H10.3113H10.2887H10.2662H10.2438H10.2215H10.1992H10.1771H10.155H10.133H10.111H10.0892H10.0674H10.0458H10.0242H10.0027H9.98125H9.95992H9.93867H9.91751H9.89643H9.87545H9.85455H9.83374H9.81302H9.79239H9.77186H9.75141H9.73105H9.71078H9.69061H9.67053H9.65055H9.63065H9.61086H9.59115H9.57154H9.55203H9.53262H9.5133H9.49407H9.47495H9.45593H9.437H9.41817H9.39945H9.38082H9.3623H9.34387H9.32555H9.30733H9.28921H9.2712H9.25329H9.23549H9.21779H9.20019H9.1827H9.16532H9.14805H9.13088H9.11382H9.09687H9.08003H9.0633H9.04668H9.03016H9.01376H8.99748H8.9813H8.96524H8.94928H8.93345H8.91772H8.90211H8.88662H8.87124H8.85598H8.84084H8.82581H8.8109H8.79611H8.78143H8.76688H8.75244H8.73813H8.72394H8.70986H8.69591H8.68208H8.66838H8.65479H8.64133H8.628H8.61479H8.6017H8.58874H8.57591H8.5632H8.55062H8.53817H8.52585H8.51366H8.50159H8.48966H8.47785H8.46618H8.45463H8.44322H8.43194H8.4208H8.40978H8.3989H8.38816H8.37755H8.36708H8.35674H8.34654H8.33647H8.32654H8.31675H8.3071H8.29759H8.28821H8.27898H8.26989H8.26093H8.25212H8.24345H8.23493H8.22654H8.2183H8.21021H8.20226H8.19445H8.18679H8.17927H8.1719H8.16468H8.15761H8.15068H8.1439H8.13727H8.13079H8.12446H8.11828H8.11226H8.10638H8.10065H8.09508H8.08966H8.0844H8.07929H8.07433H8.06953H8.06488H8.06039H8.05606H8.05188H8.04786H8.044H8.0403H8.03676H8.03337H8.03015H8.02709H8.02418H8.02144H8.01887H8.01645H8.0142H8.01211H8.01019H8.00843H8.00683H8.0054H8.00414H8.00305H8.00212H8.00136H8.00076H8.00034H8.00008L8 16.5V17H7.63962L7.52566 16.6581L6.52654 13.6608L2.49379 2ZM9 20.5C9 21.3284 8.32843 22 7.5 22C6.67157 22 6 21.3284 6 20.5C6 19.6716 6.67157 19 7.5 19C8.32843 19 9 19.6716 9 20.5ZM17.5 22C18.3284 22 19 21.3284 19 20.5C19 19.6716 18.3284 19 17.5 19C16.6716 19 16 19.6716 16 20.5C16 21.3284 16.6716 22 17.5 22Z" fill="#272727"/>
</svg>
